<svg width="32" height="32" viewBox="0 0 32 12" fill="none" xmlns="http://www.w3.org/2000/svg">
<path d="M7.42955 18.6224H1.67565C1.67565 18.6224 1.57117 16.7277 1.54587 15.5125C1.49247 12.9468 1.43309 10.0992 1.69907 8.94306C2.18949 8.31268 4.01133 7.87471 4.78209 6.74222C5.38804 5.85188 6.36324 3.59151 7.43373 2.0366C7.76168 1.56026 7.96898 1 9.57472 1C12.2509 1 13.8565 1.00008 15.9975 1.00008C18.1385 1.00008 20.2796 1 22.4206 1C23.92 1 24.2574 1.54571 24.5616 2.0366C26.1673 4.62812 26.5993 5.84101 27.2129 6.74417C27.9837 7.8786 29.8055 8.31268 30.2959 8.94306C30.5754 9.3023 30.504 12.9468 30.4497 15.5125C30.4239 16.7278 30.318 18.6224 30.318 18.6224H24.631M7.42955 18.6224C13.1651 18.6224 18.8948 18.6224 24.631 18.6224M7.42955 18.6224L8.79126 15.7382C8.87386 15.5632 9.04995 15.4517 9.2434 15.4517H22.5509C22.7313 15.4517 22.8978 15.5489 22.9864 15.706L24.631 18.6224" stroke="#212B36" stroke-width="1.5" stroke-linecap="round" stroke-linejoin="round"/>
<path d="M29.2659 19.1982H25.5192V20.2687H29.2659V19.1982Z" stroke="#212B36" stroke-width="1.5" stroke-linecap="round" stroke-linejoin="round"/>
<path d="M6.5179 19.1992H2.77118V20.2697H6.5179V19.1992Z" stroke="#212B36" stroke-width="1.5" stroke-linecap="round" stroke-linejoin="round"/>
<path d="M27.3579 6L29.2534 6" stroke="#212B36" stroke-width="1.5" stroke-linecap="square" stroke-linejoin="round"/>
<path d="M2.76221 6L4.5 6" stroke="#212B36" stroke-width="1.5" stroke-linecap="square" stroke-linejoin="round"/>
<path d="M3.98926 7.62402C3.98926 7.62402 7.52335 7.62402 16.404 7.62402C25.2847 7.62403 28.0039 7.62403 28.0039 7.62403" stroke="#212B36" stroke-width="1.5" stroke-linecap="round" stroke-linejoin="round"/>
<path d="M8.75 11.0039V11.8389H5.25V10.6426L8.75 11.0039Z" stroke="#212B36" stroke-width="1.5"/>
<path d="M26.6076 11.8398H23.1076V11.0039L26.6076 10.6426V11.8398Z" stroke="#212B36" stroke-width="1.5"/>
</svg>
