<?xml version="1.0" encoding="UTF-8"?><svg id="Layer_2" xmlns="http://www.w3.org/2000/svg" viewBox="0 0 173.53 99.86"><defs><style>.cls-1{fill:#004a80;}.cls-2{fill:#ae1923;}</style></defs><g id="Layer_1-2"><path class="cls-1" d="M49.97,13.2c2.97,0,5.52-1.82,6.97-5.28,1.46-3.49.83-5.69-2.27-5.69-2.97,0-5.25,1.9-6.67,5.38-1.41,3.48-.52,5.59,1.97,5.59M172.6,16.03c-.64-.64-1.46-1-2.35-.99-.89,0-1.67.32-2.28.93-.64.68-.99,1.49-.99,2.35,0,.89.36,1.67.96,2.31.64.64,1.46,1,2.31.99.86-.03,1.68-.36,2.35-1,.6-.61.92-1.39.92-2.32,0-.85-.32-1.67-.93-2.28M172.28,20.34c-.57.54-1.25.82-2.03.82s-1.46-.28-1.99-.85c-.54-.53-.86-1.25-.86-1.99,0-.75.32-1.46.89-2.03.5-.53,1.21-.82,1.96-.82.78,0,1.49.28,2.03.85.53.54.82,1.25.82,2.03,0,.75-.28,1.46-.82,1.99M171.89,17.42c0-.68-.5-1.03-1.53-1.03h-.11s-1.32,0-1.32,0v3.74s.72,0,.72,0v-1.6s.6,0,.6,0h.07s.78,1.6.78,1.6h.78s-.86-1.71-.86-1.71c.54-.11.85-.47.85-1M170.25,18.1h-.61v-1.25h.57s.03,0,.03,0c.64,0,.92.21.93.64,0,.43-.28.61-.93.61M37.14,0c-5.26,9.94-8.9,19.8-11.37,28.73-1.03-9.38-1.39-20.66-.51-28.73h-7.68C9.32,17.75,4.56,36.86,1.04,56.76h8.1c1.41-9.64,3.8-21.25,6.97-31.4.42,8.19,2.35,21.1,4.78,31.4h7.26C29.76,41.65,36.93,13.56,46.09,0h-8.95ZM165.29,16.39h-8.32c-1.83,6.28-3.48,11.94-8.24,21.15-5.91,11.43-9.12,12.85-4.64-3.26,7.29-26.19-6.8-20.31-11.7-9.41l1.62-8.48h-8.59c-7.42,34.24-21.14,41.01-21.89,28.85,5.76-3.37,9.45-7.02,12.57-12.67,10.53-19.02-11.86-25.51-18.95.93-1.32,4.9-1.88,9.02-1.85,12.38-.94.41-1.91.8-2.89,1.18.79-4.21.4-9.71-2.03-16.6-2.35-6.67-1.73-10.56-.55-14.08h-8.31c-1.73,5.96-4.41,13.88-8.81,21.75-.37-2.34-1.02-4.89-2-7.67-2.35-6.67-1.73-10.56-.55-14.08h-8.31c-1.82,6.28-3.48,11.94-8.24,21.15-5.91,11.43-9.96,12.12-6.43-1.13,2.84-10.67,6.56-20.02,6.56-20.02h-8.98s-3.87,9.87-6.78,23.14c-4.9,22.31,7.82,29.69,23.76-11.27.42,2.55,2.13,7.95,2.9,10.73,4.72,17.1-8.36,17.16-1.93,4.35l-6.01.74c-6.13,17.09,15.16,18.59,16.37.46,2.9-4.73,5.82-10.3,8.35-16.29.42,2.55,2.13,7.96,2.9,10.73,4.72,17.1-8.36,17.16-1.93,4.35l-6.01.74c-5.25,14.63,9.6,17.83,14.74,7.08,1.57-.66,3.06-1.29,4.45-1.92,2.05,13.54,16.3,10,24.88-7.27l-2.88,14.78h8.59s2.6-13.1,3.83-19.84c1.15-6.3,10.96-21.6,4.66,2.62-5.75,22.11,6.28,29.69,22.23-11.28.41,2.55,2.13,7.95,2.9,10.73,4.72,17.1-8.36,17.16-1.93,4.35l-6.02.74c-7.42,20.68,25.34,18.53,14.02-13.62-2.35-6.67-1.72-10.56-.54-14.08M105.92,32c5.51-16.13,10.49-11.6,5.79-.77-1.85,4.27-4.6,7.44-8.03,9.99.32-2.59,1.03-5.67,2.24-9.22"/><path class="cls-1" d="M3.15,99.71H.18c-.1,0-.18-.08-.18-.18v-7.91c0-.1.08-.18.18-.18h2.98c2.42,0,3.82.52,3.82,4.13s-1.4,4.14-3.82,4.14M3.02,92.26H.95v6.62h2.07c2,0,2.98-.35,2.98-3.33s-.97-3.29-2.98-3.29"/><path class="cls-1" d="M13.82,99.71h-5.05c-.1,0-.18-.08-.18-.18v-7.91c0-.1.09-.18.18-.18h5.03c.1,0,.18.08.18.18v.48c0,.1-.08.18-.18.18h-4.26v2.68h4.11c.1,0,.17.08.17.18v.49c0,.1-.07.18-.17.18h-4.11v3.05h4.28c.09,0,.17.08.17.18v.48c0,.1-.08.18-.17.18"/><path class="cls-1" d="M20.67,99.71h-4.88c-.1,0-.18-.08-.18-.18v-7.98c0-.09.06-.12.13-.14l.67-.11h.03c.08,0,.11.08.11.15v7.4h4.11c.1,0,.17.08.17.18v.52c0,.1-.07.18-.17.18"/><path class="cls-1" d="M22.78,99.71h-.59c-.1,0-.18-.08-.18-.18v-7.98c0-.09.06-.12.13-.14l.67-.11h.03c.08,0,.11.08.11.15v8.09c0,.1-.08.18-.18.18"/><path class="cls-1" d="M28.72,99.53c-.03.1-.11.18-.21.18h-1.4c-.1,0-.18-.08-.21-.18l-2.76-7.9s-.01-.03-.01-.05c0-.07.06-.14.12-.14h.74c.08,0,.15.03.18.1l2.44,7.37h.41l2.34-7.37c.02-.07.1-.1.18-.1h.74c.07,0,.11.07.11.14v.05l-2.66,7.9Z"/><path class="cls-1" d="M37.78,99.71h-5.05c-.1,0-.18-.08-.18-.18v-7.91c0-.1.09-.18.18-.18h5.03c.1,0,.18.08.18.18v.48c0,.1-.08.18-.18.18h-4.26v2.68h4.1c.1,0,.17.08.17.18v.49c0,.1-.07.18-.17.18h-4.1v3.05h4.27c.09,0,.17.08.17.18v.48c0,.1-.08.18-.17.18"/><path class="cls-1" d="M46.05,99.55c0,.08-.07.17-.16.17h-.63c-.12,0-.17-.04-.18-.16l-.1-1.66c-.07-1.04-.64-1.53-1.98-1.57l-2.48-.05v3.26c0,.1-.08.18-.18.18h-.59c-.1,0-.18-.08-.18-.18v-7.91c0-.1.08-.18.18-.18h3.58c1.62,0,2.56.6,2.56,2.3,0,1.17-.42,1.82-1.76,1.99v.29c.79.1,1.75.2,1.83,1.97l.08,1.54h0ZM43.43,92.26h-2.91v3.28l2.37-.08c1.11-.05,2.03-.24,2.03-1.58,0-1.06-.4-1.62-1.49-1.62"/><path class="cls-1" d="M48.5,99.71h-.59c-.1,0-.18-.08-.18-.18v-7.98c0-.09.06-.12.13-.14l.67-.11h.03c.08,0,.11.08.11.15v8.09c0,.1-.08.18-.18.18"/><path class="cls-1" d="M57.75,99.71h-1.35c-.1,0-.17-.09-.21-.18l-4.14-7.31h-.4v7.31c0,.1-.08.18-.18.18h-.59c-.1,0-.18-.08-.18-.18v-7.91c0-.1.08-.18.18-.18h1.7c.1,0,.17.09.21.18l4.11,7.35h.09v-7.38c0-.1.06-.14.15-.14h.65c.12,0,.16.07.16.14v7.94c0,.1-.08.18-.18.18"/><path class="cls-1" d="M66.26,92.46c-.02.09-.07.12-.15.12-.04,0-.08,0-.12,0-.51-.12-1.41-.43-2.69-.43-2.26,0-2.78,1.02-2.78,3.44s.55,3.45,3.01,3.45c.95,0,1.79-.2,1.79-.2v-2.91l-1.51-.17c-.06,0-.1-.04-.1-.1v-.58c0-.06.06-.1.11-.1h2.31c.1,0,.13.05.13.14v3.35c0,.63-.04.91-.53,1.09-.58.22-1.77.31-2.24.31-2.92,0-3.96-1.07-3.96-4.27,0-2.75.72-4.29,3.74-4.29,1.54,0,2.75.39,2.91.46.11.05.17.08.17.18,0,.02,0,.06-.01.1l-.1.43Z"/><path class="cls-1" d="M77.61,92.66h-2.57v6.88c0,.1-.08.17-.18.17h-1.24c-.1,0-.18-.06-.18-.17v-6.88h-2.59c-.1,0-.18-.08-.18-.18v-.87c0-.09.08-.17.18-.17h6.76c.11,0,.18.08.18.18v.86c0,.1-.07.18-.18.18"/><path class="cls-1" d="M85.94,99.71h-1.24c-.1,0-.18-.08-.18-.17v-3.47h-4.02v3.47c0,.1-.08.17-.19.17h-1.24c-.1,0-.18-.07-.18-.17v-7.92c0-.1.07-.14.17-.15l1.28-.17h.02c.09,0,.15.08.15.16v3.38h4.02v-3.21c0-.1.07-.14.16-.15l1.29-.17h.02c.09,0,.13.08.13.16v8.09c0,.09-.08.17-.18.17"/><path class="cls-1" d="M93.73,99.71h-5.36c-.1,0-.19-.08-.19-.18v-7.91c0-.1.09-.18.19-.18h5.35c.11,0,.18.08.18.17v.87c0,.1-.07.18-.18.18h-3.94v2.17h3.77c.1,0,.18.08.18.18v.88c0,.09-.08.17-.18.17h-3.77v2.44h3.95c.1,0,.18.08.18.17v.86c0,.1-.08.18-.18.18"/><path class="cls-1" d="M102.65,99.71h-3.36c-.1,0-.18-.08-.18-.18v-7.91c0-.1.08-.18.18-.18h3.36c2.74,0,3.79,1.05,3.79,4.13s-1.05,4.14-3.79,4.14M102.46,92.6h-1.73v5.96h1.73c1.68-.01,2.34-.49,2.34-3s-.66-2.96-2.34-2.96"/><path class="cls-1" d="M109.53,99.71h-1.24c-.1,0-.18-.07-.18-.17v-7.92c0-.1.07-.14.17-.15l1.28-.17h.02c.09,0,.14.08.14.16v8.09c0,.1-.08.17-.19.17"/><path class="cls-1" d="M117.06,92.67h-3.67v2.68h3.31c.1,0,.17.07.17.17v.89c0,.1-.08.18-.17.18h-3.31v2.94c0,.1-.09.18-.19.18h-1.23c-.1,0-.19-.08-.19-.18v-7.91c0-.1.09-.18.19-.18h5.09c.11,0,.18.08.18.17v.88c0,.1-.07.18-.18.18"/><path class="cls-1" d="M123.84,92.67h-3.67v2.68h3.31c.1,0,.18.07.18.17v.89c0,.1-.08.18-.18.18h-3.31v2.94c0,.1-.09.18-.19.18h-1.23c-.1,0-.19-.08-.19-.18v-7.91c0-.1.09-.18.19-.18h5.09c.11,0,.18.08.18.17v.88c0,.1-.07.18-.18.18"/><path class="cls-1" d="M130.89,99.71h-5.36c-.1,0-.19-.08-.19-.18v-7.91c0-.1.09-.18.19-.18h5.35c.11,0,.18.08.18.17v.87c0,.1-.07.18-.18.18h-3.94v2.17h3.77c.1,0,.18.08.18.18v.88c0,.09-.08.17-.18.17h-3.77v2.44h3.95c.1,0,.18.08.18.17v.86c0,.1-.08.18-.18.18"/><path class="cls-1" d="M139.51,99.71h-1.26c-.12,0-.19-.05-.19-.15l-.11-1.87c-.05-.93-.77-1.15-1.77-1.19l-1.76-.04v3.09c0,.1-.08.17-.19.17h-1.24c-.1,0-.18-.07-.18-.17v-7.92c0-.1.09-.18.19-.18h3.78c1.7,0,2.74.56,2.74,2.29,0,1.17-.45,1.83-1.87,2v.31c1.15.08,1.87.32,1.95,1.94l.07,1.54s-.06.18-.16.18M136.52,92.6h-2.1v2.83l1.8-.08c1.02-.05,1.67-.28,1.67-1.35,0-.95-.36-1.4-1.36-1.4"/><path class="cls-1" d="M146.97,99.71h-5.36c-.1,0-.19-.08-.19-.18v-7.91c0-.1.09-.18.19-.18h5.35c.11,0,.18.08.18.17v.87c0,.1-.07.18-.18.18h-3.94v2.17h3.77c.1,0,.18.08.18.18v.88c0,.09-.08.17-.18.17h-3.77v2.44h3.95c.1,0,.18.08.18.17v.86c0,.1-.08.18-.18.18"/><path class="cls-1" d="M156.28,99.71h-2.56c-.1,0-.18-.09-.21-.18l-2.75-6.86h-.37l.1,6.87c0,.1-.08.17-.19.17h-1.23c-.1,0-.18-.07-.18-.17v-7.93c0-.09.09-.17.19-.17h2.69c.1,0,.19.07.22.16l2.81,7.14h.16l-.07-7.12c0-.14.1-.18.22-.18h1.14c.13,0,.22.04.22.18v7.92c0,.1-.08.17-.19.17"/><path class="cls-1" d="M164.72,99.19c0,.08-.03.16-.19.21-.44.13-1.26.38-2.62.38-2.83,0-3.77-1.31-3.77-4.22s.94-4.22,3.77-4.22c1.36,0,2.18.27,2.62.4.16.05.19.13.19.2,0,.02,0,.06-.01.08l-.15.73c-.01.1-.08.14-.17.14-.03,0-.07-.01-.1-.02-.4-.1-1.26-.32-2.13-.32-1.94,0-2.38.91-2.38,3s.45,3.02,2.38,3.02c.86,0,1.72-.2,2.13-.3.03-.01.07-.02.1-.02.09,0,.15.05.17.15l.15.72s.01.06.01.08"/><path class="cls-1" d="M171.73,99.71h-5.36c-.1,0-.19-.08-.19-.18v-7.91c0-.1.09-.18.19-.18h5.35c.11,0,.18.08.18.17v.87c0,.1-.07.18-.18.18h-3.94v2.17h3.77c.1,0,.18.08.18.18v.88c0,.09-.08.17-.18.17h-3.77v2.44h3.95c.1,0,.18.08.18.17v.86c0,.1-.08.18-.18.18"/><rect class="cls-1" x=".01" y="64.75" width="171.9" height="3.58"/><rect class="cls-2" x=".01" y="71.88" width="171.9" height="8"/></g></svg>