<svg xmlns="http://www.w3.org/2000/svg" xmlns:xlink="http://www.w3.org/1999/xlink" version="1.0" id="Layer_1" x="0px" y="0px" style="enable-background:new 0 0 935 608.2;" xml:space="preserve" viewBox="102 171.2 731 265.8">
<style type="text/css">
	.st0{fill:#FFFFFF;}
	.st1{fill:#004899;}
</style>
<path class="st0" d="M105.3,174.5h724.4v259.2H105.3V174.5z"/>
<path class="st1" d="M102,171.2h731V437H102V171.2z M257,240.6c-7-1.4-14.2-2.5-21.7-3.3c-7.3-0.8-14.7-1.2-22-1.2  c-7.8,0-15.6,0.5-23.3,1.6c-7.6,1-14.9,3.1-21.9,6.2c-6.5,2.8-12.1,7.3-16.3,12.9c-4.1,5.6-6.3,12.9-6.4,21.9  c0.2,10.1,2.6,17.9,7.2,23.4c4.6,5.5,10.5,9.7,17.2,12.1c6.7,2.5,13.5,4.4,20.6,5.7c5.8,1,11.6,2.4,17.2,4.1c4.6,1.5,7,4,7.2,7.4  c-0.2,3.2-2.5,5.6-6.9,7c-5.1,1.5-10.5,2.2-15.8,2c-7.8,0-15.6-0.8-23.2-2.2c-7.6-1.4-15-3.5-22.1-6.4v34c8.9,2.1,17.9,3.6,27,4.7  c9.1,1,18.3,1.5,27.4,1.5c10,0.1,20-1.1,29.7-3.6c9.2-2.2,17.6-6.8,24.4-13.4c6.5-6.4,9.9-15.4,10.1-27c-0.2-10-2.6-17.7-7.2-23.2  c-4.6-5.4-10.5-9.5-17.2-11.9c-6.7-2.5-13.6-4.3-20.6-5.5c-5.8-0.9-11.6-2.2-17.2-3.9c-4.6-1.4-7-3.8-7.2-7.1c0-2.6,1.5-4.9,3.9-6  c2.7-1.3,5.7-2.1,8.7-2.3c3-0.3,6.1-0.4,9.2-0.4c14.6,0.2,27.6,2.4,39.1,6.6L257,240.6 M268.9,238.5l30.8,131.3h55.6l21-85.8h0.4  l22.1,85.8h54.4L485,238.5h-45.2l-16.3,83.9h-0.4l-20.6-83.9H354l-21.2,83.9h-0.4l-16.1-83.9L268.9,238.5z M552.8,266.7l14.4,43.1  h-29.3l14.6-43.1H552.8z M472.3,369.8h50.5l8.1-28.4h42.7l8.7,28.4H629l-34.3-131.3h-84.2l-31.8,131.3H472.3z M725.5,303.2v35  c-1.7,0.6-3.4,0.9-5.2,1c-1.9,0.1-3.8,0.2-5.6,0.1c-6.7-0.1-12.1-1.7-16.1-4.8c-4.1-3.1-7.2-7.4-8.8-12.3  c-1.9-5.4-2.8-11.1-2.7-16.8c0.2-12,4-21.1,11.5-27.2c7.5-6.1,17.6-9.2,30.3-9.3c6.7,0,13.4,0.7,20,2.2c5.1,1.1,10.1,2.8,14.8,5.3  v-35.4c-4.3-1-8.6-1.9-12.9-2.6c-4.5-0.7-9.6-1.3-15.4-1.7c-5.8-0.4-12.8-0.6-21-0.6c-13.5-0.2-26.8,2.3-39.3,7.3  c-11.4,4.5-21.3,12.1-28.6,22c-7.2,9.8-10.9,22-11.1,36.7c0.2,15.6,3.8,28.6,10.7,38.9c7,10.3,16.8,18.4,28.3,23.2  c11.8,5.1,25.2,7.7,40,7.7c9.6,0.1,19.1-0.5,28.6-1.7c8.8-1.1,17.5-3,26-5.5v-61.7H725.5z"/>
<path class="st0" d="M792.2,250.5c2,0,3.7,0.1,3.7,2.2s-3,1.8-5.2,1.8h-2.5v-4L792.2,250.5z M793.9,256.8c2.2-0.1,4.3-1.2,4.3-4.4  c0-3.4-2.6-4.2-5.6-4.2h-6.8v16h2.3v-7.4h3l4.2,7.4h2.7L793.9,256.8z M791.4,244.2c6.6,0.1,11.8,5.5,11.7,12.1  c-0.1,6.6-5.5,11.8-12.1,11.7c-6.5-0.1-11.6-5.4-11.7-11.8C779.3,249.5,784.7,244.2,791.4,244.2  C791.3,244.2,791.4,244.2,791.4,244.2 M791.4,270.3c7.8-0.1,14.1-6.6,13.9-14.4s-6.6-14.1-14.4-13.9c-7.7,0.1-13.9,6.4-13.9,14.2  c0,7.9,6.4,14.2,14.2,14.2C791.3,270.3,791.3,270.3,791.4,270.3"/>
</svg>