<svg xmlns="http://www.w3.org/2000/svg" viewBox="0 0 567 256"><g fill="none" stroke-width="2"><path stroke="#80a2bc" d="M461.33 126.5a.33.33 0 0 1-.33-.33v-17.34a.33.33 0 0 1 .33-.33h43.68a.33.33 0 0 0 .33-.35l-.43-6.09a.33.33 0 0 0-.33-.31h-43.25a.33.33 0 0 1-.33-.33l-.01-3.34a.33.33 0 0 1 .33-.33h43.22a.33.33 0 0 0 .33-.31l.44-9.36a.33.33 0 0 0-.33-.34l-43.65-.12a.33.33 0 0 1-.33-.33V70.08a.33.33 0 0 1 .33-.33h47.26a.33.33 0 0 0 .31-.22l2.14-6.1a.33.33 0 0 0-.32-.44l-49.29.01a.33.33 0 0 1-.33-.32l-.14-3.09a.33.33 0 0 1 .33-.34h50.93a.33.33 0 0 0 .29-.17l5.19-9.59a.33.33 0 0 0-.29-.49h-76.58a.33.33 0 0 0-.33.33l-.01 97.33a.33.33 0 0 0 .33.33l76.46.02a.33.33 0 0 0 .3-.48l-3.22-6.1a.33.33 0 0 0-.29-.18h-52.73a.33.33 0 0 1-.33-.33l-.03-3.08a.33.33 0 0 1 .33-.33l50.7-.31a.33.33 0 0 0 .31-.45l-3.54-9.04a.33.33 0 0 0-.31-.21h-47.14" vector-effect="non-scaling-stroke"/><path stroke="#012e5c" d="m127.35 49.77-.89.29a.96.95-81.6 0 0-.52.39l-23.93 35.41a1 1 0 0 1-1.65.01q-6.29-9.14-12.69-19.05-1.5-2.32-3.38-2.82" vector-effect="non-scaling-stroke"/><path stroke="#80a2bc" d="m84.29 64-9.8-14.56a1.01 1 72.8 0 0-.83-.44H50.25a1 1 0 0 0-1 1v96a1 1 0 0 0 1 1h18.5a1 1 0 0 0 1-1l.02-62.57q0-3.28 1.83-.56l22.26 33.16a1 1 0 0 0 1.66 0l43.94-65.56a1 1 0 0 0-.76-1.55q-5.74-.41-11.35.85" vector-effect="non-scaling-stroke"/><path stroke="#808c9f" d="m84.29 64 15.95 23.71a1 1 0 0 0 1.66 0l25.45-37.94" vector-effect="non-scaling-stroke"/><path stroke="#012e5c" d="M102.75 124.46q1.32 0 2.18-1.28 11.65-17.24 23.63-35.04 2.96-4.42 2.76.9c-.28 6.91.14 14.48-.06 21.6q-.5 17.45.7 34.88" vector-effect="non-scaling-stroke"/><path stroke="#80a2bc" d="M131.96 145.52q.13.61.38 1.01a1 .99-15.6 0 0 .85.47H152a1 1 0 0 0 1-1V50a1 1 0 0 0-1-1h-6.23a1.01 1-72.8 0 0-.83.44L97.3 120.17a.99.99 0 0 0 .02 1.15l3.14 4.26a1 1 0 0 0 1.57.05q.44-.52.72-1.17" vector-effect="non-scaling-stroke"/><path stroke="#808c9f" d="m131.96 145.52.39-61.83q.02-3.32-1.83-.57l-27.77 41.34" vector-effect="non-scaling-stroke"/><path stroke="#80a2bc" d="M184.5 100.75v-2a1 1 0 0 1 1-1h41.92a1 1 0 0 0 1-.95l.38-8a1 1 0 0 0-1-1.05h-42.3a1 1 0 0 1-1-1v-16a1 1 0 0 1 1-1h46.13a.99.99 0 0 0 .94-.67l1.67-4.7a1.01 1-80.2 0 0-.94-1.34l-47.81-.17a1 .99 90 0 1-.99-1v-1.62a1 1 0 0 1 1-1h49.87a1 .99 13.9 0 0 .88-.53l4.44-8.25a1 .99 14.2 0 0-.88-1.47h-75.04a1 1 0 0 0-1 1c-.06 26.29-.14 52.58.23 78.87q.12 8.52-.17 17.09a1 1 0 0 0 1 1.04h74.91a1 1 0 0 0 .87-1.49l-2.67-4.75a1.01 1.01 0 0 0-.88-.51H185.5a1 1 0 0 1-1-1v-1.79a1.01 1-.3 0 1 1-1l48.9-.24a1 1 0 0 0 .94-1.34l-2.8-7.72a1 1 0 0 0-.94-.66h-46.1a1 1 0 0 1-1-1v-16a1 1 0 0 1 1-1h42.38a1 .99 87.4 0 0 .99-1.09l-.43-4.75a1.01 1 87.2 0 0-1-.91H185.5a1 1 0 0 1-1-1" vector-effect="non-scaling-stroke"/><path stroke="#012e5c" d="M253.96 51.75q-.45 1.2.81 3.01 16.03 22.8 31.3 45.47a1.01.99-45.1 0 1-.01 1.13q-15.23 21.84-27.34 41.69" vector-effect="non-scaling-stroke"/><path stroke="#80a2bc" d="m258.72 143.05-1.2 2.52a1 1 0 0 0 .91 1.43h9.86a1.01 1-72.8 0 0 .83-.44l64.69-96q1.05-1.56-.83-1.56h-9.91a1.01 1 18 0 0-.81.41l-1.01 1.38" vector-effect="non-scaling-stroke"/><path stroke="#012e5c" d="M321.25 50.79c-1.97.15-17.62 24.2-19.69 27.26q-1.43 2.12-2.87.01-8.8-12.98-17.6-25.93-.43-.63-1.8-.88" vector-effect="non-scaling-stroke"/><path stroke="#80a2bc" d="m279.29 51.25-1.53-1.88a1.04 1 69.4 0 0-.78-.37h-22.84a1 1 0 0 0-.88 1.48l.7 1.27" vector-effect="non-scaling-stroke"/><path stroke="#808c9f" d="m279.29 51.25 20.13 29.53a1 .99 44.9 0 0 1.65 0l20.18-29.99m-62.53 92.26q13.55-19.24 26.48-38.85.93-1.4 2-2.69a1 1 0 0 0 .06-1.21l-33.3-48.55" vector-effect="non-scaling-stroke"/><path stroke="#012e5c" d="M282.89 145.16q.8.18 1.37-.65 14.72-21.29 29.05-42.85c10.37-15.59 21.3-30.92 31.74-46.53a.52.51 45.8 0 0 0-.57q-.22-.33-.76-.31" vector-effect="non-scaling-stroke"/><path stroke="#80a2bc" d="m344.29 54.25 2.38-3.72q.99-1.56-.85-1.54l-5.85.06a1.01.98-72.4 0 0-.82.44l-64.82 96.25a1 1 0 0 0 .7 1.55q4.45.57 7.86-2.13" vector-effect="non-scaling-stroke"/><path stroke="#808c9f" d="m344.29 54.25-61.4 90.91" vector-effect="non-scaling-stroke"/><path stroke="#80a2bc" d="M379.91 126.5a.34.34 0 0 1-.34-.34l-.32-76.82a.34.34 0 0 0-.34-.34h-5.76a.34.34 0 0 0-.34.34l-.36 76.86a.34.34 0 0 1-.35.34l-3.27-.13a.34.34 0 0 1-.33-.34V49.34a.34.34 0 0 0-.34-.34h-9.32a.34.34 0 0 0-.34.34v97.32a.34.34 0 0 0 .34.34h70.31a.34.34 0 0 0 .34-.34l.04-19.82a.34.34 0 0 0-.34-.34h-49.28M69.74 177.64a5.52 4.22 55.2 0 0-2.74-.88l-16.78-.01a1 1 0 0 0-1 1l.04 28.22a1 1 0 0 0 .99 1q7.76.06 15.51.02c3.14-.01 5.88-.92 6.14-4.31q.61-8.22-.15-21.6-.12-2.21-2.01-3.44m15.96 18.61h3.38a1 .99-12.7 0 1 .9.56l4.78 9.79a1 1 0 0 0 .88.56l4.58.11a1 1 0 0 0 .92-1.44l-4.31-8.69a1 1 0 0 1 .54-1.38q2.65-1.01 3.09-3.3c.68-3.54 1.9-15.21-4.29-15.65q-3.1-.22-16.68-.02a1 1 0 0 0-.99 1v28.35a1 1 0 0 0 1.01 1l4.27-.05a1 .99-.6 0 0 .99-1l-.07-8.83a1 1 0 0 1 1-1.01m27.81-19.22a.27.27 0 0 0-.27-.27h-5.72a.27.27 0 0 0-.27.27v29.8a.27.27 0 0 0 .27.27h5.72a.27.27 0 0 0 .27-.27v-29.8m18.1 22.07a.32.32 0 0 1-.62 0l-5.89-22.11a.32.32 0 0 0-.31-.24h-6.17a.32.32 0 0 0-.3.41l9.16 29.56a.32.32 0 0 0 .3.23l6.83.18a.32.32 0 0 0 .31-.22l9.23-29.75a.32.32 0 0 0-.3-.41h-5.97a.32.32 0 0 0-.31.24l-5.96 22.11m23.95 2.15a.31.31 0 0 1-.31-.31v-6.13a.31.31 0 0 1 .31-.31h10.88a.31.31 0 0 0 .31-.31v-5.13a.31.31 0 0 0-.31-.31h-10.88a.31.31 0 0 1-.31-.31v-5.63a.31.31 0 0 1 .31-.31h13.38a.31.31 0 0 0 .31-.31v-5.13a.31.31 0 0 0-.31-.31h-19.63a.31.31 0 0 0-.31.31v29.67a.31.31 0 0 0 .31.31l19.63-.05a.31.31 0 0 0 .31-.31v-5.12a.31.31 0 0 0-.31-.31h-13.38m38.73-5.52q1.54-.66 2.42-1.94c1.3-1.9 1.22-12.76 0-14.75q-1.37-2.24-4.71-2.25-10.46-.06-15.55.06a1.01 1-.9 0 0-.98 1l.04 28.15a1 1 0 0 0 1 1h3.99a1 1 0 0 0 1-1v-8.75a1 1 0 0 1 1-1h3.44a.99.99 0 0 1 .89.56l4.77 9.72a.99.99 0 0 0 .89.56l4.6.04a1 1 0 0 0 .91-1.44l-4.22-8.6a1 1 0 0 1 .51-1.36m10.55-11.46-2.27 3.78q-1.12 1.87.94 1.17.24-.08.48-.23 6.14-3.97 5.51-11.32a1.01.99 87.5 0 0-.99-.92h-5.09a1.01 1-.6 0 0-1.01 1.02l.11 4.64a1.01 1 85.6 0 0 1.13.97l.56-.07q1.31-.16.63.96m14.91 15.96v-1.98a1 1 0 0 0-1-1h-4a1 .99-88.8 0 0-.99.96q-.17 3.73.07 4.72c1.53 6.16 13.08 4.06 17.93 4.06q2.53-.01 3.3-2.41 1.51-4.73.39-10.21c-1.08-5.26-10.3-5.52-14.48-6.51a1.01 1-85.3 0 1-.77-.91l-.22-3.38a1 .99 88.1 0 1 .99-1.07h7.28a1 1 0 0 1 1 1v1.75a1 1 0 0 0 1 1h4a1 1 0 0 0 .98-.79c2.31-10.97-7.96-8.65-14.95-8.73-6.72-.08-6.57 4.27-6.67 9.65-.14 7.56 8.58 8 15.06 9.12a1.01 1.01 0 0 1 .83.99v3.83a1 1 0 0 1-1.01 1l-7.75-.1a1 .99.3 0 1-.99-.99m53.2-9.41q1.33-1.44 1.66-3.3c.61-3.42-.04-7.66-2.39-10.41a1 1 0 0 0-.76-.35l-17.68-.01a1 1 0 0 0-1 1l.17 28.26a1 1 0 0 0 1 1l16.3-.01q2.72 0 3.81-2.64c1.21-2.94 1.96-8.82-.35-11.39q-.36-.39-.73-.77a1.01 1 43.9 0 1-.03-1.38m14.89 10.43a.34.34 0 0 1-.34-.34v-6.07a.34.34 0 0 1 .34-.34h10.82a.34.34 0 0 0 .34-.34v-5.09a.34.34 0 0 0-.34-.34l-10.83.07a.34.34 0 0 1-.34-.34l.01-5.62a.34.34 0 0 1 .34-.34h13.26a.34.34 0 0 0 .34-.32l.23-5.07a.34.34 0 0 0-.34-.36h-19.74a.34.34 0 0 0-.34.34v29.57a.34.34 0 0 0 .34.34h19.57a.34.34 0 0 0 .34-.34v-5.07a.34.34 0 0 0-.34-.34h-13.32m34.09-17.64-.17 1.54a1.01 1 3.1 0 0 1 1.11l4.18-.01a1.01 1-86 0 0 .99-.87q.43-3.22-.82-6.21-.99-2.37-3.9-2.4c-4.34-.04-15.5-1.83-16.4 3.76-2.07 12.84 3.67 13.4 14.52 14.91a1 .99 3.7 0 1 .86.97l.08 3.79a1 1 0 0 1-.99 1.02l-7.77.11a1.01 1 89.7 0 1-1.01-1.01v-2.08a1 1 0 0 0-1.01-1l-4.01.06a1 .99-89.7 0 0-.98.98c-.11 5.39-.04 8.73 6.22 8.72h9.71c6.48.01 6.12-4.7 6.09-9.72-.04-8.25-8-8.12-14.74-9.22a1 1 0 0 1-.84-.94l-.17-3.57a.99.99 0 0 1 .99-1.05h7.18a1 .99 3.3 0 1 .99 1.11m24.72-.8a.31.31 0 0 1 .31-.31h7.73a.31.31 0 0 0 .31-.31v-5.13a.31.31 0 0 0-.31-.31h-22.38a.31.31 0 0 0-.31.31v5.07a.31.31 0 0 0 .31.31l7.66.1a.31.31 0 0 1 .3.3l.15 24.02a.31.31 0 0 0 .31.3l5.64-.09a.31.31 0 0 0 .3-.31l-.02-23.95m28.85-.01a.3.3 0 0 1 .3-.3h13.65a.3.3 0 0 0 .3-.3v-5.15a.3.3 0 0 0-.3-.3h-19.9a.3.3 0 0 0-.3.3v29.65a.3.3 0 0 0 .3.3h5.65a.3.3 0 0 0 .3-.3v-11.73a.3.3 0 0 1 .3-.3l10.9.12a.3.3 0 0 0 .3-.3v-5.19a.3.3 0 0 0-.3-.3h-10.9a.3.3 0 0 1-.3-.3v-5.9m26.79 13.42 3.45.14a1 1 0 0 1 .87.57l4.41 9.44a1.02 1.01-11.2 0 0 .87.58l4.62.18a1 1 0 0 0 .95-1.42l-4-8.65a1 .99-23.7 0 1 .53-1.34q2.93-1.2 3.01-4.72c.11-4.5 1.79-14.31-5.24-14.31q-7.86 0-15.77.09a1.01 1-.6 0 0-.99 1v28.25a1 1 0 0 0 1.01 1l4.25-.04a1 1 0 0 0 .99-1v-8.77a1 1 0 0 1 1.04-1m27.526-19.185a.27.27 0 0 0-.27-.27l-5.56-.01a.27.27 0 0 0-.27.27l-.052 29.82a.27.27 0 0 0 .27.27l5.56.01a.27.27 0 0 0 .27-.27l.052-29.82M443.5 194.81a.31.31 0 0 1 .31-.31h10.95a.31.31 0 0 0 .31-.31l-.03-5.13a.31.31 0 0 0-.31-.31h-10.92a.31.31 0 0 1-.31-.31v-5.63a.31.31 0 0 1 .31-.31h13.61a.31.31 0 0 0 .31-.3l.08-5.13a.31.31 0 0 0-.31-.32h-19.94a.31.31 0 0 0-.31.31v29.68a.31.31 0 0 0 .31.31l19.81-.07a.31.31 0 0 0 .31-.29l.29-5.11a.31.31 0 0 0-.31-.33h-13.85a.31.31 0 0 1-.31-.31v-6.13m26.23 12.17a.33.33 0 0 0 .33-.34l-.2-18.5a.33.33 0 0 1 .62-.18l11.21 18.88a.33.33 0 0 0 .29.16h5.69a.33.33 0 0 0 .33-.33v-29.59a.33.33 0 0 0-.33-.33h-5.54a.33.33 0 0 0-.33.33l.16 18.37a.33.33 0 0 1-.62.17l-10.9-18.65a.33.33 0 0 0-.28-.16l-6.08-.09a.33.33 0 0 0-.33.33v29.68a.33.33 0 0 0 .34.33l5.64-.08m25.49-.97a1 .99.3 0 0 1 1q7.63 0 15.43-.02c3.34-.01 6.17-1.15 6.32-4.74q.15-3.76 0-18.55c-.03-3.3-.73-6.45-4.29-6.89q-2.88-.37-17.47.04a1 1 0 0 0-.97 1l-.02 28.16" vector-effect="non-scaling-stroke"/><path stroke="#80a2bc" d="M65.74 182.82a.31.31 0 0 0-.31-.31h-9.62a.31.31 0 0 0-.31.31v18.12a.31.31 0 0 0 .31.31h9.62a.31.31 0 0 0 .31-.31v-18.12m28.756.228a.54.54 0 0 0-.539-.54l-8.7-.016a.54.54 0 0 0-.54.54l-.013 7.16a.54.54 0 0 0 .539.54l8.7.016a.54.54 0 0 0 .54-.54l.013-7.16m96.748-.137a.43.43 0 0 0-.431-.429l-8.88.016a.43.43 0 0 0-.43.43l.014 7.4a.43.43 0 0 0 .43.43l8.88-.016a.43.43 0 0 0 .43-.43l-.013-7.4m77.111-.054a.34.34 0 0 0-.34-.34l-8.42-.015a.34.34 0 0 0-.34.34l-.01 5.56a.34.34 0 0 0 .34.34l8.42.014a.34.34 0 0 0 .34-.34l.01-5.56m.411 12.071a.43.43 0 0 0-.425-.435l-8.619-.105a.43.43 0 0 0-.435.424l-.073 5.96a.43.43 0 0 0 .425.435l8.619.105a.43.43 0 0 0 .435-.424l.073-5.96m141.972-11.885a.56.56 0 0 0-.562-.558l-8.38.03a.56.56 0 0 0-.558.562l.024 7.12a.56.56 0 0 0 .562.558l8.38-.03a.56.56 0 0 0 .558-.562l-.024-7.12m100.996-.122a.43.43 0 0 0-.43-.43l-9.4.017a.43.43 0 0 0-.43.431l.032 17.88a.43.43 0 0 0 .43.43l9.4-.017a.43.43 0 0 0 .43-.431l-.032-17.88" vector-effect="non-scaling-stroke"/></g><path fill="#014479" d="M0 0h567v256H0V0Zm461.33 126.5a.33.33 0 0 1-.33-.33v-17.34a.33.33 0 0 1 .33-.33h43.68a.33.33 0 0 0 .33-.35l-.43-6.09a.33.33 0 0 0-.33-.31h-43.25a.33.33 0 0 1-.33-.33l-.01-3.34a.33.33 0 0 1 .33-.33h43.22a.33.33 0 0 0 .33-.31l.44-9.36a.33.33 0 0 0-.33-.34l-43.65-.12a.33.33 0 0 1-.33-.33V70.08a.33.33 0 0 1 .33-.33h47.26a.33.33 0 0 0 .31-.22l2.14-6.1a.33.33 0 0 0-.32-.44l-49.29.01a.33.33 0 0 1-.33-.32l-.14-3.09a.33.33 0 0 1 .33-.34h50.93a.33.33 0 0 0 .29-.17l5.19-9.59a.33.33 0 0 0-.29-.49h-76.58a.33.33 0 0 0-.33.33l-.01 97.33a.33.33 0 0 0 .33.33l76.46.02a.33.33 0 0 0 .3-.48l-3.22-6.1a.33.33 0 0 0-.29-.18h-52.73a.33.33 0 0 1-.33-.33l-.03-3.08a.33.33 0 0 1 .33-.33l50.7-.31a.33.33 0 0 0 .31-.45l-3.54-9.04a.33.33 0 0 0-.31-.21h-47.14ZM127.35 49.77l-.89.29a.96.95-81.6 0 0-.52.39l-23.93 35.41a1 1 0 0 1-1.65.01q-6.29-9.14-12.69-19.05-1.5-2.32-3.38-2.82l-9.8-14.56a1.01 1 72.8 0 0-.83-.44H50.25a1 1 0 0 0-1 1v96a1 1 0 0 0 1 1h18.5a1 1 0 0 0 1-1l.02-62.57q0-3.28 1.83-.56l22.26 33.16a1 1 0 0 0 1.66 0l43.94-65.56a1 1 0 0 0-.76-1.55q-5.74-.41-11.35.85Zm-24.6 74.69q1.32 0 2.18-1.28 11.65-17.24 23.63-35.04 2.96-4.42 2.76.9c-.28 6.91.14 14.48-.06 21.6q-.5 17.45.7 34.88.13.61.38 1.01a1 .99-15.6 0 0 .85.47H152a1 1 0 0 0 1-1V50a1 1 0 0 0-1-1h-6.23a1.01 1-72.8 0 0-.83.44L97.3 120.17a.99.99 0 0 0 .02 1.15l3.14 4.26a1 1 0 0 0 1.57.05q.44-.52.72-1.17Zm81.75-23.71v-2a1 1 0 0 1 1-1h41.92a1 1 0 0 0 1-.95l.38-8a1 1 0 0 0-1-1.05h-42.3a1 1 0 0 1-1-1v-16a1 1 0 0 1 1-1h46.13a.99.99 0 0 0 .94-.67l1.67-4.7a1.01 1-80.2 0 0-.94-1.34l-47.81-.17a1 .99 90 0 1-.99-1v-1.62a1 1 0 0 1 1-1h49.87a1 .99 13.9 0 0 .88-.53l4.44-8.25a1 .99 14.2 0 0-.88-1.47h-75.04a1 1 0 0 0-1 1c-.06 26.29-.14 52.58.23 78.87q.12 8.52-.17 17.09a1 1 0 0 0 1 1.04h74.91a1 1 0 0 0 .87-1.49l-2.67-4.75a1.01 1.01 0 0 0-.88-.51H185.5a1 1 0 0 1-1-1v-1.79a1.01 1-.3 0 1 1-1l48.9-.24a1 1 0 0 0 .94-1.34l-2.8-7.72a1 1 0 0 0-.94-.66h-46.1a1 1 0 0 1-1-1v-16a1 1 0 0 1 1-1h42.38a1 .99 87.4 0 0 .99-1.09l-.43-4.75a1.01 1 87.2 0 0-1-.91H185.5a1 1 0 0 1-1-1Zm69.46-49q-.45 1.2.81 3.01 16.03 22.8 31.3 45.47a1.01.99-45.1 0 1-.01 1.13q-15.23 21.84-27.34 41.69l-1.2 2.52a1 1 0 0 0 .91 1.43h9.86a1.01 1-72.8 0 0 .83-.44l64.69-96q1.05-1.56-.83-1.56h-9.91a1.01 1 18 0 0-.81.41l-1.01 1.38c-1.97.15-17.62 24.2-19.69 27.26q-1.43 2.12-2.87.01-8.8-12.98-17.6-25.93-.43-.63-1.8-.88l-1.53-1.88a1.04 1 69.4 0 0-.78-.37h-22.84a1 1 0 0 0-.88 1.48l.7 1.27Zm28.93 93.41q.8.18 1.37-.65 14.72-21.29 29.05-42.85c10.37-15.59 21.3-30.92 31.74-46.53a.52.51 45.8 0 0 0-.57q-.22-.33-.76-.31l2.38-3.72q.99-1.56-.85-1.54l-5.85.06a1.01.98-72.4 0 0-.82.44l-64.82 96.25a1 1 0 0 0 .7 1.55q4.45.57 7.86-2.13Zm97.02-18.66a.34.34 0 0 1-.34-.34l-.32-76.82a.34.34 0 0 0-.34-.34h-5.76a.34.34 0 0 0-.34.34l-.36 76.86a.34.34 0 0 1-.35.34l-3.27-.13a.34.34 0 0 1-.33-.34V49.34a.34.34 0 0 0-.34-.34h-9.32a.34.34 0 0 0-.34.34v97.32a.34.34 0 0 0 .34.34h70.31a.34.34 0 0 0 .34-.34l.04-19.82a.34.34 0 0 0-.34-.34h-49.28ZM69.74 177.64a5.52 4.22 55.2 0 0-2.74-.88l-16.78-.01a1 1 0 0 0-1 1l.04 28.22a1 1 0 0 0 .99 1q7.76.06 15.51.02c3.14-.01 5.88-.92 6.14-4.31q.61-8.22-.15-21.6-.12-2.21-2.01-3.44Zm15.96 18.61h3.38a1 .99-12.7 0 1 .9.56l4.78 9.79a1 1 0 0 0 .88.56l4.58.11a1 1 0 0 0 .92-1.44l-4.31-8.69a1 1 0 0 1 .54-1.38q2.65-1.01 3.09-3.3c.68-3.54 1.9-15.21-4.29-15.65q-3.1-.22-16.68-.02a1 1 0 0 0-.99 1v28.35a1 1 0 0 0 1.01 1l4.27-.05a1 .99-.6 0 0 .99-1l-.07-8.83a1 1 0 0 1 1-1.01Zm27.81-19.22a.27.27 0 0 0-.27-.27h-5.72a.27.27 0 0 0-.27.27v29.8a.27.27 0 0 0 .27.27h5.72a.27.27 0 0 0 .27-.27v-29.8Zm18.1 22.07a.32.32 0 0 1-.62 0l-5.89-22.11a.32.32 0 0 0-.31-.24h-6.17a.32.32 0 0 0-.3.41l9.16 29.56a.32.32 0 0 0 .3.23l6.83.18a.32.32 0 0 0 .31-.22l9.23-29.75a.32.32 0 0 0-.3-.41h-5.97a.32.32 0 0 0-.31.24l-5.96 22.11Zm23.95 2.15a.31.31 0 0 1-.31-.31v-6.13a.31.31 0 0 1 .31-.31h10.88a.31.31 0 0 0 .31-.31v-5.13a.31.31 0 0 0-.31-.31h-10.88a.31.31 0 0 1-.31-.31v-5.63a.31.31 0 0 1 .31-.31h13.38a.31.31 0 0 0 .31-.31v-5.13a.31.31 0 0 0-.31-.31h-19.63a.31.31 0 0 0-.31.31v29.67a.31.31 0 0 0 .31.31l19.63-.05a.31.31 0 0 0 .31-.31v-5.12a.31.31 0 0 0-.31-.31h-13.38Zm38.73-5.52q1.54-.66 2.42-1.94c1.3-1.9 1.22-12.76 0-14.75q-1.37-2.24-4.71-2.25-10.46-.06-15.55.06a1.01 1-.9 0 0-.98 1l.04 28.15a1 1 0 0 0 1 1h3.99a1 1 0 0 0 1-1v-8.75a1 1 0 0 1 1-1h3.44a.99.99 0 0 1 .89.56l4.77 9.72a.99.99 0 0 0 .89.56l4.6.04a1 1 0 0 0 .91-1.44l-4.22-8.6a1 1 0 0 1 .51-1.36Zm10.55-11.46-2.27 3.78q-1.12 1.87.94 1.17.24-.08.48-.23 6.14-3.97 5.51-11.32a1.01.99 87.5 0 0-.99-.92h-5.09a1.01 1-.6 0 0-1.01 1.02l.11 4.64a1.01 1 85.6 0 0 1.13.97l.56-.07q1.31-.16.63.96Zm14.91 15.96v-1.98a1 1 0 0 0-1-1h-4a1 .99-88.8 0 0-.99.96q-.17 3.73.07 4.72c1.53 6.16 13.08 4.06 17.93 4.06q2.53-.01 3.3-2.41 1.51-4.73.39-10.21c-1.08-5.26-10.3-5.52-14.48-6.51a1.01 1-85.3 0 1-.77-.91l-.22-3.38a1 .99 88.1 0 1 .99-1.07h7.28a1 1 0 0 1 1 1v1.75a1 1 0 0 0 1 1h4a1 1 0 0 0 .98-.79c2.31-10.97-7.96-8.65-14.95-8.73-6.72-.08-6.57 4.27-6.67 9.65-.14 7.56 8.58 8 15.06 9.12a1.01 1.01 0 0 1 .83.99v3.83a1 1 0 0 1-1.01 1l-7.75-.1a1 .99.3 0 1-.99-.99Zm53.2-9.41q1.33-1.44 1.66-3.3c.61-3.42-.04-7.66-2.39-10.41a1 1 0 0 0-.76-.35l-17.68-.01a1 1 0 0 0-1 1l.17 28.26a1 1 0 0 0 1 1l16.3-.01q2.72 0 3.81-2.64c1.21-2.94 1.96-8.82-.35-11.39q-.36-.39-.73-.77a1.01 1 43.9 0 1-.03-1.38Zm14.89 10.43a.34.34 0 0 1-.34-.34v-6.07a.34.34 0 0 1 .34-.34h10.82a.34.34 0 0 0 .34-.34v-5.09a.34.34 0 0 0-.34-.34l-10.83.07a.34.34 0 0 1-.34-.34l.01-5.62a.34.34 0 0 1 .34-.34h13.26a.34.34 0 0 0 .34-.32l.23-5.07a.34.34 0 0 0-.34-.36h-19.74a.34.34 0 0 0-.34.34v29.57a.34.34 0 0 0 .34.34h19.57a.34.34 0 0 0 .34-.34v-5.07a.34.34 0 0 0-.34-.34h-13.32Zm34.09-17.64-.17 1.54a1.01 1 3.1 0 0 1 1.11l4.18-.01a1.01 1-86 0 0 .99-.87q.43-3.22-.82-6.21-.99-2.37-3.9-2.4c-4.34-.04-15.5-1.83-16.4 3.76-2.07 12.84 3.67 13.4 14.52 14.91a1 .99 3.7 0 1 .86.97l.08 3.79a1 1 0 0 1-.99 1.02l-7.77.11a1.01 1 89.7 0 1-1.01-1.01v-2.08a1 1 0 0 0-1.01-1l-4.01.06a1 .99-89.7 0 0-.98.98c-.11 5.39-.04 8.73 6.22 8.72h9.71c6.48.01 6.12-4.7 6.09-9.72-.04-8.25-8-8.12-14.74-9.22a1 1 0 0 1-.84-.94l-.17-3.57a.99.99 0 0 1 .99-1.05h7.18a1 .99 3.3 0 1 .99 1.11Zm24.72-.8a.31.31 0 0 1 .31-.31h7.73a.31.31 0 0 0 .31-.31v-5.13a.31.31 0 0 0-.31-.31h-22.38a.31.31 0 0 0-.31.31v5.07a.31.31 0 0 0 .31.31l7.66.1a.31.31 0 0 1 .3.3l.15 24.02a.31.31 0 0 0 .31.3l5.64-.09a.31.31 0 0 0 .3-.31l-.02-23.95Zm28.85-.01a.3.3 0 0 1 .3-.3h13.65a.3.3 0 0 0 .3-.3v-5.15a.3.3 0 0 0-.3-.3h-19.9a.3.3 0 0 0-.3.3v29.65a.3.3 0 0 0 .3.3h5.65a.3.3 0 0 0 .3-.3v-11.73a.3.3 0 0 1 .3-.3l10.9.12a.3.3 0 0 0 .3-.3v-5.19a.3.3 0 0 0-.3-.3h-10.9a.3.3 0 0 1-.3-.3v-5.9Zm26.79 13.42 3.45.14a1 1 0 0 1 .87.57l4.41 9.44a1.02 1.01-11.2 0 0 .87.58l4.62.18a1 1 0 0 0 .95-1.42l-4-8.65a1 .99-23.7 0 1 .53-1.34q2.93-1.2 3.01-4.72c.11-4.5 1.79-14.31-5.24-14.31q-7.86 0-15.77.09a1.01 1-.6 0 0-.99 1v28.25a1 1 0 0 0 1.01 1l4.25-.04a1 1 0 0 0 .99-1v-8.77a1 1 0 0 1 1.04-1Zm27.526-19.185a.27.27 0 0 0-.27-.27l-5.56-.01a.27.27 0 0 0-.27.27l-.052 29.82a.27.27 0 0 0 .27.27l5.56.01a.27.27 0 0 0 .27-.27l.052-29.82ZM443.5 194.81a.31.31 0 0 1 .31-.31h10.95a.31.31 0 0 0 .31-.31l-.03-5.13a.31.31 0 0 0-.31-.31h-10.92a.31.31 0 0 1-.31-.31v-5.63a.31.31 0 0 1 .31-.31h13.61a.31.31 0 0 0 .31-.3l.08-5.13a.31.31 0 0 0-.31-.32h-19.94a.31.31 0 0 0-.31.31v29.68a.31.31 0 0 0 .31.31l19.81-.07a.31.31 0 0 0 .31-.29l.29-5.11a.31.31 0 0 0-.31-.33h-13.85a.31.31 0 0 1-.31-.31v-6.13Zm26.23 12.17a.33.33 0 0 0 .33-.34l-.2-18.5a.33.33 0 0 1 .62-.18l11.21 18.88a.33.33 0 0 0 .29.16h5.69a.33.33 0 0 0 .33-.33v-29.59a.33.33 0 0 0-.33-.33h-5.54a.33.33 0 0 0-.33.33l.16 18.37a.33.33 0 0 1-.62.17l-10.9-18.65a.33.33 0 0 0-.28-.16l-6.08-.09a.33.33 0 0 0-.33.33v29.68a.33.33 0 0 0 .34.33l5.64-.08Zm25.49-.97a1 .99.3 0 0 1 1q7.63 0 15.43-.02c3.34-.01 6.17-1.15 6.32-4.74q.15-3.76 0-18.55c-.03-3.3-.73-6.45-4.29-6.89q-2.88-.37-17.47.04a1 1 0 0 0-.97 1l-.02 28.16Z"/><path fill="#fff" d="M461.33 126.5h47.14a.33.33 0 0 1 .31.21l3.54 9.04a.33.33 0 0 1-.31.45l-50.7.31a.33.33 0 0 0-.33.33l.03 3.08a.33.33 0 0 0 .33.33h52.73a.33.33 0 0 1 .29.18l3.22 6.1a.33.33 0 0 1-.3.48l-76.46-.02a.33.33 0 0 1-.33-.33l.01-97.33a.33.33 0 0 1 .33-.33h76.58a.33.33 0 0 1 .29.49l-5.19 9.59a.33.33 0 0 1-.29.17h-50.93a.33.33 0 0 0-.33.34l.14 3.09a.33.33 0 0 0 .33.32l49.29-.01a.33.33 0 0 1 .32.44l-2.14 6.1a.33.33 0 0 1-.31.22h-47.26a.33.33 0 0 0-.33.33v17.21a.33.33 0 0 0 .33.33l43.65.12a.33.33 0 0 1 .33.34l-.44 9.36a.33.33 0 0 1-.33.31h-43.22a.33.33 0 0 0-.33.33l.01 3.34a.33.33 0 0 0 .33.33h43.25a.33.33 0 0 1 .33.31l.43 6.09a.33.33 0 0 1-.33.35h-43.68a.33.33 0 0 0-.33.33v17.34a.33.33 0 0 0 .33.33ZM84.29 64l15.95 23.71a1 1 0 0 0 1.66 0l25.45-37.94q5.61-1.26 11.35-.85a1 1 0 0 1 .76 1.55l-43.94 65.56a1 1 0 0 1-1.66 0L71.6 82.87q-1.83-2.72-1.83.56L69.75 146a1 1 0 0 1-1 1h-18.5a1 1 0 0 1-1-1V50a1 1 0 0 1 1-1h23.41a1.01 1 72.8 0 1 .83.44L84.29 64Zm47.67 81.52.39-61.83q.02-3.32-1.83-.57l-27.77 41.34q-.28.65-.72 1.17a1 1 0 0 1-1.57-.05l-3.14-4.26a.99.99 0 0 1-.02-1.15l47.64-70.73a1.01 1-72.8 0 1 .83-.44H152a1 1 0 0 1 1 1v96a1 1 0 0 1-1 1h-18.81a1 .99-15.6 0 1-.85-.47q-.25-.4-.38-1.01Zm53.54-43.77h41.94a1.01 1 87.2 0 1 1 .91l.43 4.75a1 .99 87.4 0 1-.99 1.09H185.5a1 1 0 0 0-1 1v16a1 1 0 0 0 1 1h46.1a1 1 0 0 1 .94.66l2.8 7.72a1 1 0 0 1-.94 1.34l-48.9.24a1.01 1-.3 0 0-1 1v1.79a1 1 0 0 0 1 1h51.56a1.01 1.01 0 0 1 .88.51l2.67 4.75a1 1 0 0 1-.87 1.49h-74.91a1 1 0 0 1-1-1.04q.29-8.57.17-17.09c-.37-26.29-.29-52.58-.23-78.87a1 1 0 0 1 1-1h75.04a1 .99 14.2 0 1 .88 1.47l-4.44 8.25a1 .99 13.9 0 1-.88.53H185.5a1 1 0 0 0-1 1v1.62a1 .99-90 0 0 .99 1l47.81.17a1.01 1-80.2 0 1 .94 1.34l-1.67 4.7a.99.99 0 0 1-.94.67H185.5a1 1 0 0 0-1 1v16a1 1 0 0 0 1 1h42.3a1 1 0 0 1 1 1.05l-.38 8a1 1 0 0 1-1 .95H185.5a1 1 0 0 0-1 1v2a1 1 0 0 0 1 1Zm93.79-50.5 20.13 29.53a1 .99 44.9 0 0 1.65 0l20.18-29.99 1.01-1.38a1.01 1 18 0 1 .81-.41h9.91q1.88 0 .83 1.56l-64.69 96a1.01 1-72.8 0 1-.83.44h-9.86a1 1 0 0 1-.91-1.43l1.2-2.52q13.55-19.24 26.48-38.85.93-1.4 2-2.69a1 1 0 0 0 .06-1.21l-33.3-48.55-.7-1.27a1 1 0 0 1 .88-1.48h22.84a1.04 1 69.4 0 1 .78.37l1.53 1.88Zm65 3-61.4 90.91q-3.41 2.7-7.86 2.13a1 1 0 0 1-.7-1.55l64.82-96.25a1.01.98-72.4 0 1 .82-.44l5.85-.06q1.84-.02.85 1.54l-2.38 3.72Zm35.62 72.25h49.28a.34.34 0 0 1 .34.34l-.04 19.82a.34.34 0 0 1-.34.34h-70.31a.34.34 0 0 1-.34-.34V49.34a.34.34 0 0 1 .34-.34h9.32a.34.34 0 0 1 .34.34v76.73a.34.34 0 0 0 .33.34l3.27.13a.34.34 0 0 0 .35-.34l.36-76.86a.34.34 0 0 1 .34-.34h5.76a.34.34 0 0 1 .34.34l.32 76.82a.34.34 0 0 0 .34.34Z"/><path fill="#00183f" d="M127.35 49.77 101.9 87.71a1 1 0 0 1-1.66 0L84.29 64q1.88.5 3.38 2.82 6.4 9.91 12.69 19.05a1 1 0 0 0 1.65-.01l23.93-35.41a.96.95-81.6 0 1 .52-.39l.89-.29Zm193.9 1.02-20.18 29.99a1 .99 44.9 0 1-1.65 0l-20.13-29.53q1.37.25 1.8.88 8.8 12.95 17.6 25.93 1.44 2.11 2.87-.01c2.07-3.06 17.72-27.11 19.69-27.26Zm-67.29.96 33.3 48.55a1 1 0 0 1-.06 1.21q-1.07 1.29-2 2.69-12.93 19.61-26.48 38.85 12.11-19.85 27.34-41.69a1.01.99-45.1 0 0 .01-1.13q-15.27-22.67-31.3-45.47-1.26-1.81-.81-3.01Zm90.33 2.5q.54-.02.76.31a.52.51 45.8 0 1 0 .57c-10.44 15.61-21.37 30.94-31.74 46.53q-14.33 21.56-29.05 42.85-.57.83-1.37.65l61.4-90.91Zm-212.33 91.27q-1.2-17.43-.7-34.88c.2-7.12-.22-14.69.06-21.6q.2-5.32-2.76-.9-11.98 17.8-23.63 35.04-.86 1.28-2.18 1.28l27.77-41.34q1.85-2.75 1.83.57l-.39 61.83Z"/><path fill="#fff" d="M69.74 177.64q1.89 1.23 2.01 3.44.76 13.38.15 21.6c-.26 3.39-3 4.3-6.14 4.31q-7.75.04-15.51-.02a1 1 0 0 1-.99-1l-.04-28.22a1 1 0 0 1 1-1l16.78.01a5.52 4.22 55.2 0 1 2.74.88Zm-4 5.18a.31.31 0 0 0-.31-.31h-9.62a.31.31 0 0 0-.31.31v18.12a.31.31 0 0 0 .31.31h9.62a.31.31 0 0 0 .31-.31v-18.12Zm18.96 14.44.07 8.83a1 .99-.6 0 1-.99 1l-4.27.05a1 1 0 0 1-1.01-1v-28.35a1 1 0 0 1 .99-1q13.58-.2 16.68.02c6.19.44 4.97 12.11 4.29 15.65q-.44 2.29-3.09 3.3a1 1 0 0 0-.54 1.38l4.31 8.69a1 1 0 0 1-.92 1.44l-4.58-.11a1 1 0 0 1-.88-.56l-4.78-9.79a1 .99-12.7 0 0-.9-.56H85.7a1 1 0 0 0-1 1.01Zm9.796-14.212a.54.54 0 0 0-.539-.54l-8.7-.016a.54.54 0 0 0-.54.54l-.013 7.16a.54.54 0 0 0 .539.54l8.7.016a.54.54 0 0 0 .54-.54l.013-7.16Z"/><rect width="6.26" height="30.34" x="107.25" y="176.76" fill="#fff" rx=".27"/><path fill="#fff" d="m131.61 199.1 5.96-22.11a.32.32 0 0 1 .31-.24h5.97a.32.32 0 0 1 .3.41l-9.23 29.75a.32.32 0 0 1-.31.22l-6.83-.18a.32.32 0 0 1-.3-.23l-9.16-29.56a.32.32 0 0 1 .3-.41h6.17a.32.32 0 0 1 .31.24l5.89 22.11a.32.32 0 0 0 .62 0Zm23.95 2.15h13.38a.31.31 0 0 1 .31.31v5.12a.31.31 0 0 1-.31.31l-19.63.05a.31.31 0 0 1-.31-.31v-29.67a.31.31 0 0 1 .31-.31h19.63a.31.31 0 0 1 .31.31v5.13a.31.31 0 0 1-.31.31h-13.38a.31.31 0 0 0-.31.31v5.63a.31.31 0 0 0 .31.31h10.88a.31.31 0 0 1 .31.31v5.13a.31.31 0 0 1-.31.31h-10.88a.31.31 0 0 0-.31.31v6.13a.31.31 0 0 0 .31.31Zm38.22-4.16 4.22 8.6a1 1 0 0 1-.91 1.44l-4.6-.04a.99.99 0 0 1-.89-.56l-4.77-9.72a.99.99 0 0 0-.89-.56h-3.44a1 1 0 0 0-1 1V206a1 1 0 0 1-1 1h-3.99a1 1 0 0 1-1-1l-.04-28.15a1.01 1-.9 0 1 .98-1q5.09-.12 15.55-.06 3.34.01 4.71 2.25c1.22 1.99 1.3 12.85 0 14.75q-.88 1.28-2.42 1.94a1 1 0 0 0-.51 1.36Zm-2.536-14.179a.43.43 0 0 0-.431-.429l-8.88.016a.43.43 0 0 0-.43.43l.014 7.4a.43.43 0 0 0 .43.43l8.88-.016a.43.43 0 0 0 .43-.43l-.013-7.4Zm12.966.399-.56.07a1.01 1 85.6 0 1-1.13-.97l-.11-4.64a1.01 1-.6 0 1 1.01-1.02h5.09a1.01.99 87.5 0 1 .99.92q.63 7.35-5.51 11.32-.24.15-.48.23-2.06.7-.94-1.17l2.27-3.78q.68-1.12-.63-.96Zm16.53 17.91 7.75.1a1 1 0 0 0 1.01-1v-3.83a1.01 1.01 0 0 0-.83-.99c-6.48-1.12-15.2-1.56-15.06-9.12.1-5.38-.05-9.73 6.67-9.65 6.99.08 17.26-2.24 14.95 8.73a1 1 0 0 1-.98.79h-4a1 1 0 0 1-1-1v-1.75a1 1 0 0 0-1-1h-7.28a1 .99 88.1 0 0-.99 1.07l.22 3.38a1.01 1-85.3 0 0 .77.91c4.18.99 13.4 1.25 14.48 6.51q1.12 5.48-.39 10.21-.77 2.4-3.3 2.41c-4.85 0-16.4 2.1-17.93-4.06q-.24-.99-.07-4.72a1 .99-88.8 0 1 .99-.96h4a1 1 0 0 1 1 1v1.98a1 .99.3 0 0 .99.99Zm52.24-9.02q.37.38.73.77c2.31 2.57 1.56 8.45.35 11.39q-1.09 2.64-3.81 2.64l-16.3.01a1 1 0 0 1-1-1l-.17-28.26a1 1 0 0 1 1-1l17.68.01a1 1 0 0 1 .76.35c2.35 2.75 3 6.99 2.39 10.41q-.33 1.86-1.66 3.3a1.01 1 43.9 0 0 .03 1.38Zm-4.625-9.342a.34.34 0 0 0-.34-.34l-8.42-.015a.34.34 0 0 0-.34.34l-.01 5.56a.34.34 0 0 0 .34.34l8.42.014a.34.34 0 0 0 .34-.34l.01-5.56Zm.411 12.07a.43.43 0 0 0-.425-.435l-8.619-.105a.43.43 0 0 0-.435.424l-.073 5.96a.43.43 0 0 0 .425.435l8.619.105a.43.43 0 0 0 .435-.424l.073-5.96Zm19.074 6.322h13.32a.34.34 0 0 1 .34.34v5.07a.34.34 0 0 1-.34.34h-19.57a.34.34 0 0 1-.34-.34v-29.57a.34.34 0 0 1 .34-.34h19.74a.34.34 0 0 1 .34.36l-.23 5.07a.34.34 0 0 1-.34.32h-13.26a.34.34 0 0 0-.34.34l-.01 5.62a.34.34 0 0 0 .34.34l10.83-.07a.34.34 0 0 1 .34.34v5.09a.34.34 0 0 1-.34.34h-10.82a.34.34 0 0 0-.34.34v6.07a.34.34 0 0 0 .34.34Zm33.1-18.75h-7.18a.99.99 0 0 0-.99 1.05l.17 3.57a1 1 0 0 0 .84.94c6.74 1.1 14.7.97 14.74 9.22.03 5.02.39 9.73-6.09 9.72h-9.71c-6.26.01-6.33-3.33-6.22-8.72a1 .99-89.7 0 1 .98-.98l4.01-.06a1 1 0 0 1 1.01 1v2.08a1.01 1 89.7 0 0 1.01 1.01l7.77-.11a1 1 0 0 0 .99-1.02l-.08-3.79a1 .99 3.7 0 0-.86-.97c-10.85-1.51-16.59-2.07-14.52-14.91.9-5.59 12.06-3.8 16.4-3.76q2.91.03 3.9 2.4 1.25 2.99.82 6.21a1.01 1-86 0 1-.99.87l-4.18.01a1.01 1 3.1 0 1-1-1.11l.17-1.54a1 .99 3.3 0 0-.99-1.11Zm25.71.31.02 23.95a.31.31 0 0 1-.3.31l-5.64.09a.31.31 0 0 1-.31-.3l-.15-24.02a.31.31 0 0 0-.3-.3l-7.66-.1a.31.31 0 0 1-.31-.31v-5.07a.31.31 0 0 1 .31-.31h22.38a.31.31 0 0 1 .31.31v5.13a.31.31 0 0 1-.31.31h-7.73a.31.31 0 0 0-.31.31Zm28.85-.01v5.9a.3.3 0 0 0 .3.3h10.9a.3.3 0 0 1 .3.3v5.19a.3.3 0 0 1-.3.3l-10.9-.12a.3.3 0 0 0-.3.3v11.73a.3.3 0 0 1-.3.3h-5.65a.3.3 0 0 1-.3-.3v-29.65a.3.3 0 0 1 .3-.3h19.9a.3.3 0 0 1 .3.3v5.15a.3.3 0 0 1-.3.3H375.8a.3.3 0 0 0-.3.3Zm25.75 14.42v8.77a1 1 0 0 1-.99 1l-4.25.04a1 1 0 0 1-1.01-1v-28.25a1.01 1-.6 0 1 .99-1q7.91-.09 15.77-.09c7.03 0 5.35 9.81 5.24 14.31q-.08 3.52-3.01 4.72a1 .99-23.7 0 0-.53 1.34l4 8.65a1 1 0 0 1-.95 1.42l-4.62-.18a1.02 1.01-11.2 0 1-.87-.58l-4.41-9.44a1 1 0 0 0-.87-.57l-3.45-.14a1 1 0 0 0-1.04 1Zm9.488-14.177a.56.56 0 0 0-.562-.558l-8.38.03a.56.56 0 0 0-.558.562l.024 7.12a.56.56 0 0 0 .562.558l8.38-.03a.56.56 0 0 0 .558-.562l-.024-7.12Z"/><rect width="6.1" height="30.36" x="-3.05" y="-15.18" fill="#fff" rx=".27" transform="rotate(.1 -109760.121 244599.917)"/><path fill="#fff" d="M443.5 194.81v6.13a.31.31 0 0 0 .31.31h13.85a.31.31 0 0 1 .31.33l-.29 5.11a.31.31 0 0 1-.31.29l-19.81.07a.31.31 0 0 1-.31-.31v-29.68a.31.31 0 0 1 .31-.31h19.94a.31.31 0 0 1 .31.32l-.08 5.13a.31.31 0 0 1-.31.3h-13.61a.31.31 0 0 0-.31.31v5.63a.31.31 0 0 0 .31.31h10.92a.31.31 0 0 1 .31.31l.03 5.13a.31.31 0 0 1-.31.31h-10.95a.31.31 0 0 0-.31.31Zm26.23 12.17-5.64.08a.33.33 0 0 1-.34-.33v-29.68a.33.33 0 0 1 .33-.33l6.08.09a.33.33 0 0 1 .28.16l10.9 18.65a.33.33 0 0 0 .62-.17l-.16-18.37a.33.33 0 0 1 .33-.33h5.54a.33.33 0 0 1 .33.33v29.59a.33.33 0 0 1-.33.33h-5.69a.33.33 0 0 1-.29-.16l-11.21-18.88a.33.33 0 0 0-.62.18l.2 18.5a.33.33 0 0 1-.33.34Zm25.49-.97.02-28.16a1 1 0 0 1 .97-1q14.59-.41 17.47-.04c3.56.44 4.26 3.59 4.29 6.89q.15 14.79 0 18.55c-.15 3.59-2.98 4.73-6.32 4.74q-7.8.02-15.43.02a1 .99.3 0 1-1-1Zm16.514-23.089a.43.43 0 0 0-.43-.43l-9.4.017a.43.43 0 0 0-.43.431l.032 17.88a.43.43 0 0 0 .43.43l9.4-.017a.43.43 0 0 0 .43-.431l-.032-17.88Z"/><rect width="10.24" height="18.74" x="55.5" y="182.51" fill="#014479" rx=".31"/><rect width="9.78" height="8.24" x="-4.89" y="-4.12" fill="#014479" rx=".54" transform="rotate(.1 -106880.557 51430.315)"/><rect width="9.74" height="8.26" x="-4.87" y="-4.13" fill="#014479" rx=".43" transform="rotate(-.1 107018.547 -106694.537)"/><rect width="9.1" height="6.24" x="-4.55" y="-3.12" fill="#014479" rx=".34" transform="rotate(.1 -106226.229 151239.043)"/><rect width="9.5" height="8.24" x="-4.75" y="-4.12" fill="#014479" rx=".56" transform="rotate(-.2 53665.638 -116217.004)"/><rect width="10.26" height="18.74" x="-5.13" y="-9.37" fill="#014479" rx=".43" transform="rotate(-.1 110186.694 -290175.87)"/><rect width="9.48" height="6.82" x="-4.74" y="-3.41" fill="#014479" rx=".43" transform="rotate(.7 -16062.046 21706.532)"/></svg>