<svg xmlns="http://www.w3.org/2000/svg" viewBox="0 0 296.55 76.24"><defs><style>.cls-1{fill:#F93822;}</style></defs><title>FEBEST LOGO</title><g id="Layer_2" data-name="Layer_2"><g id="Layer_1-2" data-name="Layer_1"><g id="_Group_" data-name="&lt;Group&gt;"><path id="_Outline_" data-name="&lt;Outline&gt;" class="cls-1" d="M139.43,30.88h-29.1v4.56h28.9c1.13,0,1.69-.44,1.69-1.32v-2C140.92,30.88,139.43,30.88,139.43,30.88Z"/><path id="_Outline_2" data-name="&lt;Outline&gt;" class="cls-1" d="M139.23,19.31h-28.9v4.56h29.18c.27,0,1.41,0,1.41-.95V20.49C140.92,19.7,140.36,19.31,139.23,19.31Z"/><path id="_Compounded_outline_" data-name="&lt;Compounded outline&gt;" class="cls-1" d="M296.55,0H13.16A13.16,13.16,0,0,0,0,13.16V54.74H283.38a13.16,13.16,0,0,0,13.16-13.16V0ZM54.16,19.31H21.38c-1.13,0-1.69.49-1.69,1.47v3.09H53.93v7H19.69V42.44H12.3V19.72a7.42,7.42,0,0,1,7.42-7.42H54.16Zm45.51,0H64.82v4.56H99.67v7H64.82v4.56H99.67v7H57.44V12.3H99.67Zm48.82,3.07c0,1.93-1.39,3.47-3.1,4.6a4.27,4.27,0,0,1,2.92,4.14v3.95q0,7.38-9.05,7.37H103V12.3h36.29c5.81,0,9.25,2.46,9.25,7.36Zm45.33-3.07H159v4.56h34.85v7H159v4.56h34.85v7H151.58V12.3h42.24Zm44.83,15.82q0,7.32-9.08,7.31H197.21v-7h32.36c1.13,0,1.69-.36,1.69-1.06V31.93c0-.73-.56-1.09-1.69-1.09h-23.4q-9.09,0-9.08-6.44V19.65q0-7.35,9.12-7.35h32.4v7h-32.4c-1.16,0-1.74.37-1.74,1.09v2.34c0,.73.58,1.09,1.74,1.09H229.6q9,0,9.05,7.2Zm45.59-15.82H267V42.44h-7.38V19.31H242v-7h42.27Z"/></g><g id="_Group_2" data-name="&lt;Group&gt;"><path id="_Compounded_outline_2" data-name="&lt;Compounded outline&gt;" class="cls-1" d="M7.82,76l-1-2.51H2.92L1.9,76H.47l3.67-9.24H5.56L9.23,76Zm-3-7.71-1.55,4H6.39Z"/><path id="_Compounded_outline_3" data-name="&lt;Compounded outline&gt;" class="cls-1" d="M40.67,75.56a5.49,5.49,0,0,1-2.57.68,5.6,5.6,0,0,1-2.58-.68c-.94-.56-1.3-1.47-1.3-3.26V67h1.41v5.58A2.2,2.2,0,0,0,38.1,75a2.2,2.2,0,0,0,2.47-2.48V67H42V72.3C42,74.09,41.63,75,40.67,75.56Z"/><path id="_Compounded_outline_4" data-name="&lt;Compounded outline&gt;" class="cls-1" d="M71.42,68.16V76H70V68.16H66.8V67h7.82v1.19Z"/><path id="_Compounded_outline_5" data-name="&lt;Compounded outline&gt;" class="cls-1" d="M103.62,76.15a4.69,4.69,0,1,1,5-4.68A4.67,4.67,0,0,1,103.62,76.15Zm0-8.15a3.48,3.48,0,1,0,3.47,3.47A3.41,3.41,0,0,0,103.62,68Z"/><path id="_Compounded_outline_6" data-name="&lt;Compounded outline&gt;" class="cls-1" d="M165.13,72.58a9.19,9.19,0,0,1-1.88-.18V76h-1.43V67H165c2.14,0,3.29,1,3.29,2.77A2.85,2.85,0,0,1,165.13,72.58Zm-.34-4.42h-1.54v3a8.22,8.22,0,0,0,1.73.19,1.67,1.67,0,0,0,1.83-1.72C166.81,68.61,166.23,68.16,164.79,68.16Z"/><path id="_Compounded_outline_7" data-name="&lt;Compounded outline&gt;" class="cls-1" d="M199.36,76l-1-2.51h-3.86l-1,2.51H192l3.67-9.24h1.41L200.77,76Zm-3-7.71-1.55,4h3.07Z"/><path id="_Compounded_outline_8" data-name="&lt;Compounded outline&gt;" class="cls-1" d="M231.16,76l-2.37-3.68h-1.3V76h-1.43V67h3c2.17,0,3.36.9,3.36,2.56a2.55,2.55,0,0,1-2.11,2.66L232.82,76Zm-.81-7.58c-.3-.23-.41-.24-1.45-.24h-1.41v3h1.41c.93,0,1.12,0,1.51-.37a1.42,1.42,0,0,0,.49-1.15A1.38,1.38,0,0,0,230.35,68.4Z"/><path id="_Compounded_outline_9" data-name="&lt;Compounded outline&gt;" class="cls-1" d="M261.05,68.16V76h-1.41V68.16h-3.2V67h7.82v1.19Z"/><path id="_Compounded_outline_10" data-name="&lt;Compounded outline&gt;" class="cls-1" d="M294.22,68.76a3.67,3.67,0,0,0-1.13-.55,4.65,4.65,0,0,0-1.26-.19c-1.15,0-1.85.42-1.85,1.11a1,1,0,0,0,.11.48c.27.39.57.56,2.32,1.41s2.24,1.45,2.24,2.56c0,1.6-1.24,2.57-3.28,2.57a5.55,5.55,0,0,1-1.84-.29,6.88,6.88,0,0,1-1.28-.68l.64-1.22a5.68,5.68,0,0,0,1.17.72,4.07,4.07,0,0,0,1.48.3c1.06,0,1.68-.46,1.68-1.21,0-.6-.3-1-1-1.34l-1.64-.79c-1.37-.66-2-1.41-2-2.37,0-1.49,1.28-2.45,3.27-2.45a6,6,0,0,1,1.68.22,5.5,5.5,0,0,1,1.21.53Z"/></g></g></g></svg>