<?xml version="1.0" encoding="utf-8"?>
<!-- Generator: Adobe Illustrator 27.4.1, SVG Export Plug-In . SVG Version: 6.00 Build 0)  -->
<svg version="1.1" id="Layer_1" xmlns="http://www.w3.org/2000/svg" xmlns:xlink="http://www.w3.org/1999/xlink" x="0px" y="0px"
	 viewBox="0 0 616 168" style="enable-background:new 0 0 616 168;" xml:space="preserve">
<style type="text/css">
	.st0{fill:#FFFFFF;}
	.st1{fill:#252A5F;}
	.st2{fill:#ED1C24;}
</style>
<g>
	<rect x="36" y="100.64" class="st0" width="197" height="54.36"/>
	<g>
		<path class="st1" d="M602.3,12.24L602.3,12.24c1.24,0,2.47-0.03,2.46-1.43c-0.01-1.16-0.96-1.42-1.95-1.42h-1.86l0.01,2.85H602.3z
			 M600.99,16.78L600.99,16.78h-1.04l-0.02-8.23l3.16-0.02c1.85,0,2.69,0.81,2.7,2.29c0,1.43-0.95,2.07-2.06,2.29l2.44,3.65h-1.19
			l-2.33-3.65h-1.69L600.99,16.78z M596.54,12.67L596.54,12.67c0,3.39,2.54,6.08,6,6.08c3.42-0.01,5.98-2.71,5.98-6.13
			c0-3.41-2.6-6.09-6-6.07C599.04,6.56,596.53,9.26,596.54,12.67 M609.63,12.63c0.01,3.98-3.05,7.12-7.08,7.12
			c-4.04,0.01-7.1-3.1-7.12-7.08c0-4.02,3.07-7.13,7.1-7.13C606.56,5.52,609.61,8.64,609.63,12.63"/>
		<path class="st1" d="M390.98,46.41L390.98,46.41c-0.05,1.31-1.11,2.35-2.43,2.35h-11.21c-1.32,0-1.77-0.87-1.04-1.94l13.84-20.44
			c0.72-1.07,1.3-0.89,1.27,0.4L390.98,46.41z M407.78,6.86L407.78,6.86h-19.75c-1.29,0-2.98,0.88-3.76,1.89l-48.26,63.96
			c-0.78,1.04-0.35,1.87,0.94,1.87h18.16c1.33,0,2.96-0.88,3.68-1.95l4.86-7.25c0.72-1.08,2.36-1.98,3.65-1.98h20.77
			c1.27,0,2.31,1.07,2.27,2.35l-0.18,6.48c-0.04,1.31,0.99,2.35,2.28,2.35h18.77c1.3,0,2.31-1.04,2.23-2.35l-3.2-63.02
			C410.21,7.93,409.09,6.86,407.78,6.86 M494.44,11.63L494.44,11.63c-3.6-3.1-11.37-4.65-20.32-4.65c-7.26,0-13.3,0.87-18.08,2.58
			c-4.78,1.68-8.73,4.05-11.87,7.02c-3.12,2.98-5.29,6.16-6.46,9.51c-1.8,5.11-1.25,9.3,1.66,12.61c2.88,3.28,8.71,5.93,17.49,7.92
			c3.01,0.65,5.37,1.36,7.03,2.07c1.31,0.57,4.61,1.64,3.5,4.84c-0.25,0.73-0.64,1.44-1.17,2.1c-0.73,0.96-1.72,1.83-2.99,2.61
			c-2.16,1.35-4.75,2.03-7.84,2.03c-4.13,0-6.84-1.32-8.15-3.97c-0.46-0.91-0.68-1.62-0.49-2.97c0.15-1.38-0.37-1.52-1.57-1.52
			c-4.23-0.01-16.09-0.01-16.87-0.01c-1.62,0-2.5,0.4-2.79,2.4c-1,5.52-0.12,10.15,2.56,13.9c3.08,4.25,10.55,6.38,22.46,6.38
			c6.77,0,12.7-0.9,17.79-2.72c5.1-1.84,9.51-4.5,13.24-8.04c3.72-3.54,6.31-7.4,7.79-11.59c1.25-3.57,1.46-6.76,0.63-9.66
			c-0.88-2.87-3.01-5.3-6.39-7.22c-3.41-1.96-9.5-3.88-18.28-5.79c-3.56-0.73-5.68-1.53-6.39-2.39c-0.77-0.85-0.97-1.77-0.59-2.8
			c0.49-1.45,1.54-2.65,3.16-3.65c1.64-0.99,3.71-1.48,6.22-1.48c3.05,0,5.21,0.69,6.47,2.01c0.93,1,1.39,2.51,1.37,4.44
			c-0.09,2.26,1.93,2.06,1.93,2.06s16.99,0.01,18.08,0.01c1.51,0,2.09-0.23,2.45-2.35C498.8,19.5,497.59,14.36,494.44,11.63
			 M582.22,6.86L582.22,6.86h-63.43c-1.3,0-2.72,1.01-3.13,2.22l-4.35,12.28c-0.42,1.22,0.31,2.23,1.58,2.23h20.52
			c0,0-0.63,1.73-0.78,2.21l-16.4,46.55c-0.42,1.22,0.28,2.24,1.58,2.24h17.73c1.27,0,2.69-1.02,3.13-2.24l16.37-46.55
			c0.2-0.57,0.53-1.62,0.76-2.21h20.54c1.3,0,2.69-1.01,3.13-2.23l4.31-12.28C584.21,7.87,583.5,6.86,582.22,6.86 M338.41,47.79
			l4.15-12.31c0.41-1.24-0.3-2.24-1.6-2.24h-23.4h-2.33c0.07-0.24,0.6-1.59,0.86-2.18l2.95-7.47c0.49-1.19,1.94-2.19,3.22-2.19
			h29.75c1.3,0,2.7-0.99,3.11-2.22l3.58-10.1c0.45-1.21-0.26-2.22-1.57-2.22h-52.8c-1.28,0-2.71,1.01-3.12,2.22l-22.27,63.26
			c-0.42,1.22,0.29,2.24,1.56,2.24h17.83c1.29,0,2.72-1.02,3.17-2.22l7.52-20.14c0.21-0.56,0.89-2.2,0.89-2.2h2.3h23.12
			C336.61,50.02,338,49.02,338.41,47.79"/>
		<path class="st1" d="M95.38,72.36L95.38,72.36c-0.44,1.21,0.25,2.19,1.56,2.19h10.49c1.29,0,2.71-0.98,3.14-2.19l22.63-63.2
			c0.45-1.21-0.26-2.2-1.54-2.2h-10.5c-1.29,0-2.71,0.99-3.15,2.2L95.38,72.36z"/>
		<path class="st1" d="M146.24,72.36L146.24,72.36c-0.44,1.21,0.25,2.19,1.57,2.19h20.6c1.29,0,2.71-0.98,3.14-2.19l22.64-63.2
			c0.44-1.21-0.25-2.2-1.55-2.2h-20.61c-1.31,0-2.72,0.99-3.16,2.2L146.24,72.36z"/>
		<path class="st1" d="M207.02,72.38L207.02,72.38c-0.45,1.2,0.24,2.2,1.54,2.2h33.3c1.27,0,2.7-1,3.13-2.2l22.69-63.21
			c0.43-1.21-0.26-2.2-1.56-2.2h-33.29c-1.27,0-2.68,0.99-3.13,2.2L207.02,72.38z"/>
		<path class="st1" d="M49.44,71.83L49.44,71.83c-0.43,1.22-0.8,2.33-0.8,2.46c0,0.12,1.06,0.24,2.36,0.24h5.25
			c1.29,0,2.71-0.98,3.15-2.21L82.03,9.17c0.43-1.21-0.27-2.2-1.56-2.2h-5.42c-1.3,0-2.72,0.99-3.14,2.2L49.44,71.83z"/>
	</g>
	<path class="st2" d="M430,160.84L430,160.84c-0.46,1.28,0.26,2.31,1.64,2.31h11.06c1.36,0,2.85-1.04,3.31-2.31l23.86-66.62
		c0.47-1.27-0.27-2.32-1.62-2.32h-11.06c-1.36,0-2.86,1.04-3.32,2.32L430,160.84z"/>
	<path class="st2" d="M483.61,160.84L483.61,160.84c-0.47,1.28,0.27,2.31,1.65,2.31h21.71c1.37,0,2.86-1.04,3.31-2.31l23.87-66.62
		c0.47-1.27-0.27-2.32-1.64-2.32h-21.72c-1.38,0-2.86,1.04-3.33,2.32L483.61,160.84z"/>
	<path class="st2" d="M547.69,160.86L547.69,160.86c-0.47,1.27,0.26,2.32,1.62,2.32h35.11c1.34,0,2.84-1.05,3.31-2.32l23.92-66.64
		c0.45-1.27-0.28-2.32-1.65-2.32h-35.1c-1.34,0-2.83,1.04-3.3,2.32L547.69,160.86z"/>
	<path class="st2" d="M381.57,160.28L381.57,160.28c-0.45,1.29-0.84,2.46-0.84,2.59c0,0.13,1.12,0.25,2.48,0.25h5.53
		c1.36,0,2.86-1.04,3.32-2.33l23.87-66.57c0.46-1.27-0.28-2.32-1.64-2.32h-5.71c-1.37,0-2.86,1.04-3.31,2.32L381.57,160.28z"/>
	<g>
		<path class="st2" d="M173.12,117.05h-2.98v9.86h2.98c2.53,0,3.9-1.72,3.9-4.91C177.01,118.77,175.65,117.05,173.12,117.05z"/>
		<path class="st2" d="M61.84,131.12h-2.88v7.74h2.73c2.83,0,4.3-1.32,4.3-3.84C65.99,132.43,64.52,131.12,61.84,131.12z"/>
		<path class="st2" d="M64.87,120.59c0-2.38-1.01-3.59-3.34-3.59h-2.58v7.38h2.83C63.81,124.39,64.87,123.07,64.87,120.59z"/>
		<path class="st2" d="M375.24,91.9h-7.35h-14.14h-2.85h-11.12h-7.35h-3.02h-9.17h-1.96h-2.85h-12.18h-9.31h-9.16h-3.02h-11.5h-2.48
			h-11.5h-3.01h-4.34h-2.64h-11.5h-0.01h-2.85h-0.16h-7.09h-3.87h-3.01h-4.34h-3.02h-2.75h-6.41h-1.96h-2.85h-0.16h-7.09h-3.02
			h-1.91h-9.31h-2.75h-6.41h-3.02h-11.5h-0.57h-1.91h-14.51h-6.98h-11.5h-3.02h-7.09h-6.88H88.71H77.33h-7.09h-3.02H53.24h-21.5
			c-1.36,0-2.86,1.06-3.34,2.34L4.25,161.58c-0.48,1.28,0.26,2.35,1.64,2.35h21.49h13.99h3.01h7.09h11.4h10.1h6.89h7.09h3.01h11.5
			h6.99h14.5h1.91h0.58h11.5h3.01h6.41h2.75h9.32h1.91h3.01h7.09h0.16h2.85h1.97h6.41h2.75h3.01h4.34h3.01h3.88h7.09h0.16h2.84h0
			h11.49h2.65h4.34h3.01h11.49h2.49h11.5h3.01h9.17h9.32h12.17h2.85h1.97h9.17h3.01h7.35h11.14h2.85h14.14h7.35
			c1.35,0,2.87-1.06,3.34-2.35l24.17-67.34C377.36,92.96,376.62,91.9,375.24,91.9z M62.95,145.63H51.77v-35.41H62.8
			c5.46,0,9.36,4.05,9.36,10.07c0,2.68-1.11,5.51-2.98,7.23c2.63,1.52,4.2,4.35,4.2,7.54C73.37,141.38,69.02,145.63,62.95,145.63z
			 M96.39,145.63H77.62v-35.41h18.26v6.83H84.8v7.33h10.07v6.58H84.8v7.84h11.58V145.63z M120.21,146.34
			c-6.73,0-10.98-3.89-10.98-11.03h7.39c0,2.83,1.42,4.05,3.69,4.05c2.38,0,3.54-1.37,3.54-3.14c0-5.87-13.86-6.58-13.86-17.35
			c0-5.41,3.79-9.36,10.32-9.36c6.53,0,10.47,3.89,10.47,10.42h-7.38c0-2.33-1.06-3.49-3.14-3.49c-1.87,0-2.98,1.01-2.98,2.63
			c0,5.56,14.06,5.92,14.06,17.2C131.34,142.09,127.24,146.34,120.21,146.34z M157.28,134.35c0,7.44-4.15,11.89-11.13,11.89
			s-11.13-4.45-11.13-11.89v-24.13h7.33v24.13c0,3.19,1.26,4.91,3.79,4.91c2.53,0,3.79-1.72,3.79-4.91v-24.13h7.33V134.35z
			 M178.33,145.63l-5.67-11.89h-2.53v11.89h-7.18v-35.41h10.27c7.03,0,11.18,4.35,11.18,11.79c0,4.81-1.77,8.35-4.91,10.22
			l6.68,13.4H178.33z M208.32,145.63h-18.77v-35.41h18.26v6.83h-11.08v7.33h10.07v6.58h-10.07v7.84h11.58V145.63z"/>
	</g>
</g>
</svg>
