<svg height="16" viewBox="0 0 16 16" width="16" xmlns="http://www.w3.org/2000/svg"><path d="m10.7222222 7.06947156c.2138842 0 .3888889-.17500474.3888889-.38888888v-4.66666667c0-.21388414-.1750047-.38888889-.3888889-.38888889h-1.94444442v2.13888889c0 .10695394-.08749051.19444444-.19444445.19444444h-1.16666666c-.10695394 0-.19444445-.0874905-.19444445-.19444444v-2.13888889h-1.94444444c-.21388414 0-.38888889.17500475-.38888889.38888889v4.66666667c0 .21388414.17500475.38888888.38888889.38888888zm-3.88888887 7.00000004c.21388415 0 .38888889-.1750048.38888889-.3888889v-4.66666669c0-.21388414-.17500474-.38888889-.38888889-.38888889h-1.94444444v2.13888888c0 .1069539-.08749051.1944445-.19444445.1944445h-1.16666666c-.10695394 0-.19444445-.0874906-.19444445-.1944445v-2.13888888h-1.94444444c-.21388414 0-.38888889.17500475-.38888889.38888889v4.66666669c0 .2138841.17500475.3888889.38888889.3888889zm7.77777777 0c.2138842 0 .3888889-.1750048.3888889-.3888889v-4.66666669c0-.21388414-.1750047-.38888889-.3888889-.38888889h-1.9444444v2.13888888c0 .1069539-.0874905.1944445-.1944445.1944445h-1.1666666c-.106954 0-.1944445-.0874906-.1944445-.1944445v-2.13888888h-1.94444443c-.21388415 0-.38888889.17500475-.38888889.38888889v4.66666669c0 .2138841.17500474.3888889.38888889.3888889z" fill="#212b36" fill-rule="evenodd"/></svg>