<?xml version="1.0" encoding="UTF-8"?>
<svg width="81px" height="24px" viewBox="0 1 81 24" version="1.2" xmlns="http://www.w3.org/2000/svg" xmlns:xlink="http://www.w3.org/1999/xlink">
    <title>Footer-logos/klarna</title>
    <g id="Footer-logos/klarna" stroke="none" stroke-width="1" fill="none" fill-rule="evenodd">
        <path d="M28.5934718,8.10979228 C29.9465875,8.10979228 31.1928783,8.51928783 32.2255193,9.23145401 L32.2255193,9.23145401 L32.2255193,8.44807122 L35.8753709,8.44807122 L35.8753709,20.6617211 L32.2255193,20.6617211 L32.2255193,19.8783383 C31.1928783,20.5905045 29.9465875,21 28.5934718,21 C25.0326409,21 22.148368,18.115727 22.148368,14.5548961 C22.148368,10.9940653 25.0326409,8.10979228 28.5934718,8.10979228 Z M67.15727,8.10979228 C68.5103858,8.10979228 69.7566766,8.51928783 70.7893175,9.23145401 L70.7893175,9.23145401 L70.7893175,8.44807122 L74.4391691,8.44807122 L74.4391691,20.6617211 L70.7893175,20.6617211 L70.7893175,19.8783383 C69.7566766,20.5905045 68.5103858,21 67.15727,21 C63.5964392,21 60.7121662,18.115727 60.7121662,14.5548961 C60.7121662,10.9940653 63.5964392,8.10979228 67.15727,8.10979228 Z M78.3382789,16.3353116 C79.6023739,16.3353116 80.6350148,17.3501484 80.6350148,18.6320475 C80.6350148,19.8961424 79.6023739,20.9287834 78.3382789,20.9287834 C77.074184,20.9287834 76.041543,19.8961424 76.041543,18.6320475 C76.041543,17.3679525 77.074184,16.3353116 78.3382789,16.3353116 Z M54.231454,8.10979228 C57.1691395,8.10979228 59.4302671,10.0504451 59.4302671,12.8991098 L59.4302671,12.8991098 L59.4302671,20.6795252 L55.7804154,20.6795252 L55.7804154,14.2344214 C55.7804154,12.4540059 54.8545994,11.4925816 53.2522255,11.4925816 C51.7566766,11.4925816 50.5103858,12.4005935 50.5103858,14.2522255 L50.5103858,14.2522255 L50.5103858,20.6617211 L46.8249258,20.6617211 L46.8249258,8.44807122 L50.4569733,8.44807122 L50.4569733,9.8189911 C51.3827893,8.55489614 52.7715134,8.10979228 54.231454,8.10979228 Z M14.189911,3 C14.189911,6.82789318 12.694362,10.388724 10.041543,13.0237389 L10.041543,13.0237389 L15.6498516,20.6617211 L10.6468843,20.6617211 L4.5578635,12.3649852 L6.12462908,11.189911 C8.72403561,9.23145401 10.2195846,6.25816024 10.2195846,3 L10.2195846,3 Z M4.05934718,3 L4.05934718,20.6617211 L2.1893598e-13,20.6617211 L2.1893598e-13,3 L4.05934718,3 Z M20.652819,3 L20.652819,20.6617211 L16.8249258,20.6617211 L16.8249258,3 L20.652819,3 Z M41.537092,8.44807122 L41.537092,10.0326409 C42.2670623,9.08902077 43.6379822,8.44807122 45.115727,8.44807122 L45.115727,8.44807122 L45.115727,12.0089021 L45.115727,12.0089021 L45.0801187,12.0089021 C43.6379822,12.0089021 41.5548961,13.041543 41.5548961,14.9643917 L41.5548961,14.9643917 L41.5548961,20.6617211 L37.7982196,20.6617211 L37.7982196,8.44807122 L41.537092,8.44807122 Z M28.8961424,11.421365 C27.0623145,11.421365 25.5845697,12.8278932 25.5845697,14.5548961 C25.5845697,16.2818991 27.0623145,17.6884273 28.8961424,17.6884273 C30.7299703,17.6884273 32.2077151,16.2818991 32.2077151,14.5548961 C32.2077151,12.8278932 30.7299703,11.421365 28.8961424,11.421365 Z M67.4599407,11.421365 C65.6261128,11.421365 64.148368,12.8278932 64.148368,14.5548961 C64.148368,16.2818991 65.6261128,17.6884273 67.4599407,17.6884273 C69.2937685,17.6884273 70.7893175,16.2818991 70.7715134,14.5548961 C70.7715134,12.8278932 69.2937685,11.421365 67.4599407,11.421365 Z" id="Combined-Shape-Copy" fill="#000000" fill-rule="nonzero"></path>
    </g>
</svg>
