<?xml version="1.0" encoding="UTF-8"?>
<svg width="36px" height="24px" viewBox="0 0 36 24" version="1.1" xmlns="http://www.w3.org/2000/svg" xmlns:xlink="http://www.w3.org/1999/xlink">
    <title>Footer-logos/mastercard</title>
    <g id="Footer-logos/mastercard" stroke="none" stroke-width="1" fill="none" fill-rule="evenodd">
        <g id="Group" transform="translate(0.000000, 1.000000)" fill-rule="nonzero">
            <rect id="Rectangle" fill="#FF5F00" x="12.5439714" y="2.33638795" width="10.6237548" height="17.1782069"></rect>
            <path d="M13.6382243,10.9270086 C13.6355568,7.57542288 15.1896752,4.40875114 17.8527837,2.33942243 C13.3285815,-1.18056185 6.83164567,-0.667845703 2.92784814,3.51724775 C-0.975949381,7.70234121 -0.975949381,14.1547106 2.92784814,18.339804 C6.83164567,22.5248975 13.3285815,23.0376136 17.8527837,19.5176293 C15.1888277,17.4476435 13.6346144,14.2796593 13.6382243,10.9270086 Z" id="Path" fill="#EB001B"></path>
            <path d="M35.7071898,10.9270086 C35.7071898,15.1095517 33.2947517,18.9248887 29.494701,20.7526316 C25.6946502,22.5803745 21.1740372,22.0996388 17.8527837,19.5145948 C20.5147301,17.4435093 22.0689655,14.2772586 22.0689655,10.9254914 C22.0689655,7.57372418 20.5147301,4.40747347 17.8527837,2.33638795 C21.1740372,-0.248655997 25.6946502,-0.729391682 29.494701,1.09835119 C33.2947517,2.92609405 35.7071898,6.74143114 35.7071898,10.9239742 L35.7071898,10.9270086 Z" id="Path" fill="#F79E1B"></path>
        </g>
    </g>
</svg>