<?xml version="1.0" encoding="UTF-8"?>
<svg width="78px" height="24px" viewBox="0 0 78 24" version="1.1" xmlns="http://www.w3.org/2000/svg" xmlns:xlink="http://www.w3.org/1999/xlink">
    <title>Footer-logos/paypal</title>
    <g id="Footer-logos/paypal" stroke="none" stroke-width="1" fill="none" fill-rule="evenodd">
        <g id="PayPal-(1)" transform="translate(0.000000, 2.000000)" fill-rule="nonzero">
            <path d="M26.4802151,4.35419342 L22.067957,4.35419342 C21.7661764,4.3540032 21.5091647,4.57351692 21.4621505,4.8716129 L19.6776344,16.1858065 C19.6610315,16.2920581 19.69177,16.4002531 19.7617568,16.4819043 C19.8317435,16.5635555 19.9339645,16.6104799 20.0415054,16.610323 L22.147957,16.610323 C22.4499466,16.6104631 22.7070346,16.3906104 22.7537634,16.0922581 L23.2350538,13.0406452 C23.2817448,12.7425342 23.5384699,12.5227579 23.8402151,12.5225806 L25.2369892,12.5225806 C28.1434409,12.5225806 29.8208602,11.116129 30.2589247,8.32903226 C30.4563441,7.10967742 30.2673118,6.1516129 29.6963441,5.48064516 C29.0692473,4.74387097 27.9569892,4.35419342 26.4802151,4.35419342 L26.4802151,4.35419342 Z M26.9892473,8.48645161 C26.747957,10.0696774 25.5382796,10.0696774 24.3686022,10.0696774 L23.7027957,10.0696774 L24.1698925,7.11290323 C24.1981428,6.93419349 24.3521894,6.80258065 24.5331183,6.80258065 L24.8382796,6.80258065 C25.6350538,6.80258065 26.3866667,6.80258065 26.7750538,7.25677419 C27.0066667,7.52774194 27.0776344,7.93032258 26.9892473,8.48645161 L26.9892473,8.48645161 Z M39.6692473,8.43548387 L37.5563441,8.43548387 C37.3754152,8.43548669 37.2213686,8.56709672 37.1931183,8.74580645 L37.0995699,9.33677419 L36.951828,9.12258065 C36.4944086,8.45870968 35.4744086,8.23677419 34.4563441,8.23677419 C32.1215054,8.23677419 30.1273118,10.0051613 29.7389247,12.4858065 C29.5369892,13.7232258 29.824086,14.9064516 30.5260215,15.7316129 C31.1698925,16.4903226 32.0911828,16.8064516 33.1873118,16.8064516 C35.0686022,16.8064516 36.111828,15.5967742 36.111828,15.5967742 L36.0176344,16.183871 C36.0006481,16.2901009 36.03103,16.3984418 36.1007757,16.4803496 C36.1705214,16.5622573 36.2726357,16.609517 36.3802151,16.6096774 L38.2834409,16.6096774 C38.5854304,16.6098179 38.8425184,16.3899653 38.8892473,16.0916129 L40.0311828,8.86 C40.048193,8.75400303 40.0178682,8.64587803 39.9482187,8.56418566 C39.8785691,8.4824933 39.7766005,8.43545068 39.6692473,8.43548387 L39.6692473,8.43548387 Z M36.724086,12.5477419 C36.5202151,13.7548387 35.5621505,14.5651613 34.3402151,14.5651613 C33.7266667,14.5651613 33.2363441,14.3683871 32.9215054,13.9954839 C32.6092473,13.6251613 32.4905376,13.0980645 32.5898925,12.5109677 C32.7802151,11.3141935 33.7544086,10.4774194 34.9576344,10.4774194 C35.5576344,10.4774194 36.0453763,10.6767742 36.3666667,11.0529032 C36.6886022,11.4329032 36.8163441,11.9632258 36.724086,12.5477419 L36.724086,12.5477419 Z M50.9221505,8.43548257 L48.7989247,8.43548257 C48.5956334,8.43580568 48.405614,8.53648939 48.2911828,8.70451613 L45.3627957,13.0180645 L44.1215054,8.87290323 C44.0432705,8.61331676 43.8042378,8.43561486 43.5331183,8.43548257 L41.4466667,8.43548257 C41.3278357,8.43516787 41.2161758,8.4922923 41.1469007,8.58884209 C41.0776256,8.68539187 41.0592744,8.80946588 41.0976344,8.92193548 L43.4363441,15.7851613 L41.2376344,18.8890323 C41.1579749,19.0012213 41.1476085,19.1484947 41.2107668,19.2707364 C41.273925,19.3929782 41.4000408,19.469678 41.5376344,19.469678 L43.6582796,19.469678 C43.8592597,19.4699542 44.0475771,19.3715758 44.1621505,19.2064516 L51.224086,9.01290323 C51.302101,8.90049739 51.3112583,8.75407227 51.2478561,8.63282227 C51.1844539,8.51157228 51.0589767,8.43548257 50.9221505,8.43548257 L50.9221505,8.43548257 Z" id="Shape" fill="#253B80"></path>
            <path d="M57.951828,4.35419355 L53.5389247,4.35419355 C53.2373885,4.35432076 52.9807396,4.57375832 52.9337634,4.8716129 L51.1492473,16.1858065 C51.1324498,16.2918752 51.1629406,16.3999803 51.2326862,16.4816397 C51.3024318,16.5632992 51.4044374,16.6103226 51.511828,16.6103226 L53.7763441,16.6103226 C53.9873981,16.6100131 54.1668805,16.4562493 54.1995699,16.2477419 L54.7060215,13.0406452 C54.7527126,12.7425342 55.0094376,12.5227579 55.3111828,12.5225806 L56.7073118,12.5225806 C59.6144086,12.5225806 61.2911828,11.116129 61.7298925,8.32903226 C61.927957,7.10967742 61.7376344,6.1516129 61.1666667,5.48064516 C60.5402151,4.74387097 59.4286022,4.35419355 57.951828,4.35419355 L57.951828,4.35419355 Z M58.4608602,8.48645161 C58.2202151,10.0696774 57.0105376,10.0696774 55.8402151,10.0696774 L55.1750538,10.0696774 L55.6427957,7.11290323 C55.6705016,6.93415214 55.824491,6.80235698 56.0053763,6.80258036 L56.3105376,6.80258036 C57.1066667,6.80258036 57.8589247,6.80258036 58.2473118,7.25677419 C58.4789247,7.52774194 58.5492473,7.93032258 58.4608602,8.48645161 L58.4608602,8.48645161 Z M71.1402151,8.43548387 L69.0286022,8.43548387 C68.8476158,8.43498602 68.6934721,8.56691325 68.6660215,8.74580645 L68.5724731,9.33677419 L68.424086,9.12258065 C67.9666667,8.45870968 66.9473118,8.23677419 65.9292473,8.23677419 C63.5944086,8.23677419 61.6008602,10.0051613 61.2124731,12.4858065 C61.0111828,13.7232258 61.2969892,14.9064516 61.9989247,15.7316129 C62.644086,16.4903226 63.564086,16.8064516 64.6602151,16.8064516 C66.5415054,16.8064516 67.5847312,15.5967742 67.5847312,15.5967742 L67.4905376,16.183871 C67.4735156,16.2903236 67.5040618,16.3988839 67.5740975,16.4808406 C67.6441332,16.5627973 67.7466039,16.609895 67.8544086,16.6096774 L69.7569892,16.6096774 C70.0587344,16.6095002 70.3154595,16.3897238 70.3621505,16.0916129 L71.5047312,8.86 C71.5211225,8.75367707 71.4902186,8.64550154 71.4201356,8.5638828 C71.3500527,8.48226407 71.247794,8.43535824 71.1402151,8.43548387 L71.1402151,8.43548387 Z M68.1950538,12.5477419 C67.9924731,13.7548387 67.0331183,14.5651613 65.8111828,14.5651613 C65.1989247,14.5651613 64.7073118,14.3683871 64.3924731,13.9954839 C64.0802151,13.6251613 63.9627957,13.0980645 64.0608602,12.5109677 C64.2524731,11.3141935 65.2253763,10.4774194 66.4286022,10.4774194 C67.0286022,10.4774194 67.5163441,10.6767742 67.8376344,11.0529032 C68.1608602,11.4329032 68.2886022,11.9632258 68.1950538,12.5477419 L68.1950538,12.5477419 Z M73.6311828,4.66451613 L71.8202151,16.1858065 C71.8034176,16.2918752 71.8339083,16.3999803 71.9036539,16.4816397 C71.9733996,16.5632992 72.0754052,16.6103226 72.1827957,16.6103226 L74.0034409,16.6103226 C74.3060215,16.6103226 74.5627957,16.3909677 74.6092473,16.0922581 L76.3950538,4.77870968 C76.4118308,4.67258012 76.3813527,4.56442162 76.3116314,4.48266655 C76.2419101,4.40091149 76.1399204,4.35373854 76.0324731,4.35354839 L73.9937634,4.35354839 C73.8129705,4.35418856 73.6593615,4.48593152 73.6311828,4.66451613 L73.6311828,4.66451613 Z" id="Shape" fill="#179BD7"></path>
            <path d="M4.68774194,18.8090323 L5.02516129,16.6658065 L4.27354839,16.6483871 L0.684516129,16.6483871 L3.17870968,0.833548387 C3.19405702,0.733674783 3.28024581,0.660112378 3.38129032,0.660642286 L9.43290323,0.660642286 C11.4419355,0.660642286 12.8283871,1.07870968 13.5522581,1.90387097 C13.8916129,2.29096774 14.1077419,2.69548387 14.2122581,3.14064516 C14.3219355,3.60774194 14.323871,4.16580645 14.2167742,4.84645161 L14.2090323,4.89612903 L14.2090323,5.33225806 L14.5483871,5.52451613 C14.8074562,5.65576778 15.040323,5.83331504 15.2354839,6.0483871 C15.5258065,6.37935484 15.7135484,6.8 15.7929032,7.29870968 C15.8748387,7.8116129 15.8477419,8.42193548 15.7135484,9.11290323 C15.5587097,9.90774194 15.3083871,10.6 14.9703226,11.1664516 C14.6720438,11.6739009 14.2709961,12.1134052 13.7929032,12.4567742 C13.343871,12.7754839 12.8103226,13.0174194 12.2070968,13.1722581 C11.6225806,13.3245161 10.956129,13.4012903 10.2251613,13.4012903 L9.75419355,13.4012903 C9.41741935,13.4012903 9.09032258,13.5225806 8.83354839,13.74 C8.57713825,13.9597393 8.40704163,14.2633526 8.35354839,14.5967742 L8.31806452,14.7896774 L7.72193548,18.5670968 L7.69483871,18.7058065 C7.68774194,18.7496774 7.67548387,18.7716129 7.65741935,18.7864516 C7.63991996,18.8007627 7.61808787,18.8087224 7.59548387,18.8090323 L4.68774194,18.8090323 Z" id="Path" fill="#253B80"></path>
            <path d="M14.8696774,4.94645161 C14.8516129,5.06193548 14.8309677,5.18 14.8077419,5.30129032 C14.0096774,9.39870968 11.2793548,10.8141935 7.79225806,10.8141935 L6.01677419,10.8141935 C5.59032258,10.8141935 5.23096774,11.123871 5.16451613,11.5445161 L4.25548387,17.3096774 L3.99806452,18.943871 C3.97731195,19.075056 4.01502012,19.2087516 4.10126151,19.3097595 C4.18750289,19.4107674 4.31363532,19.4690323 4.44645161,19.4690323 L7.59548387,19.4690323 C7.9683871,19.4690323 8.28516129,19.1980645 8.34387097,18.8303226 L8.37483871,18.6703226 L8.96774194,14.9077419 L9.00580645,14.7012903 C9.06387097,14.3322581 9.38129032,14.0612903 9.75419355,14.0612903 L10.2251613,14.0612903 C13.276129,14.0612903 15.6645161,12.8225806 16.3625806,9.23806452 C16.6541935,7.74064516 16.5032258,6.49032258 15.7316129,5.61096774 C15.4870518,5.33894391 15.1949693,5.1137606 14.8696774,4.94645161 L14.8696774,4.94645161 Z" id="Path" fill="#179BD7"></path>
            <path d="M14.0348387,4.61354839 C13.780017,4.53983303 13.5207905,4.48229896 13.2587097,4.44129032 C12.7408516,4.36170443 12.2174741,4.32351901 11.6935484,4.32709677 L6.95032258,4.32709677 C6.57734053,4.32686687 6.25986448,4.59853978 6.20258065,4.96709677 L5.19354839,11.3580645 L5.16451613,11.5445161 C5.22946913,11.1241256 5.59139545,10.8139813 6.01677419,10.8141935 L7.79225806,10.8141935 C11.2793548,10.8141935 14.0096774,9.39806452 14.8077419,5.30129032 C14.8316129,5.18 14.8516129,5.06193548 14.8696774,4.94645161 C14.6590873,4.83601844 14.4396089,4.7434361 14.2135484,4.66967742 C14.1542826,4.6500128 14.0947051,4.63130071 14.0348387,4.61354839 L14.0348387,4.61354839 Z" id="Path" fill="#222D65"></path>
            <path d="M6.20258065,4.96709677 C6.25938609,4.59836999 6.57724758,4.32658334 6.95032258,4.32774194 L11.6935484,4.32774194 C12.2554839,4.32774194 12.78,4.36451613 13.2587097,4.44193548 C13.58265,4.49284661 13.902117,4.56899234 14.2141935,4.66967742 C14.4496774,4.74774194 14.6683871,4.84 14.8703226,4.94645161 C15.1077419,3.43225806 14.8683871,2.40129032 14.0496774,1.46774194 C13.1470968,0.44 11.5180645,0 9.43354839,0 L3.38193548,0 C2.95612903,0 2.59290323,0.309677419 2.52709677,0.730967742 L0.0064516129,16.7083871 C-0.0173086674,16.8585079 0.0257996731,17.0115094 0.124436952,17.1271446 C0.22307423,17.2427797 0.367365503,17.3094718 0.519354839,17.3096774 L4.25548387,17.3096774 L5.19354839,11.3580645 L6.20258065,4.96709677 Z" id="Path" fill="#253B80"></path>
        </g>
    </g>
</svg>