<svg width="50" height="24" viewBox="0 0 50 24" fill="none" xmlns="http://www.w3.org/2000/svg">
    <g id="Payment option=Visa-logo, Size=Large 24px">
        <path id="visa-logo" fill-rule="evenodd" clip-rule="evenodd" d="M12.5005 19.8759H8.17334L4.92847 7.46355C4.77446 6.89258 4.44744 6.38782 3.96641 6.14991C2.76594 5.55205 1.4431 5.07625 0 4.83627V4.3584H6.97075C7.93282 4.3584 8.65437 5.07625 8.77463 5.90994L10.4582 14.8634L14.7833 4.3584H18.9902L12.5005 19.8759ZM21.3953 19.8759H17.3086L20.6737 4.3584H24.7604L21.3953 19.8759ZM30.0479 8.6567C30.1682 7.82093 30.8897 7.34306 31.7316 7.34306C33.0544 7.22307 34.4954 7.46304 35.698 8.05884L36.4195 4.71785C35.2169 4.23997 33.8941 4 32.6936 4C28.7272 4 25.841 6.1494 25.841 9.1325C25.841 11.4019 27.8854 12.5935 29.3285 13.3113C30.8897 14.0271 31.491 14.505 31.3708 15.2208C31.3708 16.2944 30.1682 16.7723 28.9677 16.7723C27.5246 16.7723 26.0815 16.4144 24.7608 15.8165L24.0392 19.1596C25.4823 19.7554 27.0436 19.9954 28.4867 19.9954C32.9341 20.1133 35.698 17.966 35.698 14.7429C35.698 10.684 30.0479 10.4461 30.0479 8.6567ZM50.0002 19.8759L46.7553 4.3584H43.2699C42.5484 4.3584 41.8268 4.83627 41.5863 5.55205L35.5776 19.8759H39.7846L40.6243 17.6086H45.7933L46.2743 19.8759H50.0002ZM43.8712 8.53613L45.0717 14.3844H41.7065L43.8712 8.53613Z" fill="#1634C5"/>
    </g>
</svg>
