<svg xmlns="http://www.w3.org/2000/svg" width="32" height="32">
<path d="M10.56,3.2c3.2,0,7.68,0,10.88,0c1.6,0,4.64,1.28,5.76,3.52c0.64,1.28,1.12,3.84,1.92,3.84C31.2,10.56,32,11.2,32,12.8v1.6h-1.6v12c0,1.28-1.12,2.4-2.4,2.4h-1.6c-1.28,0-2.4-1.12-2.4-2.4V25.6H8v0.8c0,1.28-1.12,2.4-2.4,2.4h-1.6c-1.28,0-2.4-1.12-2.4-2.4v-0.8V14.4H0v-1.6c0,0,0.16-1.6,2.56-1.6c0.8,0,1.28-2.08,2.4-4.32C6.08,4.48,8.96,3.2,10.56,3.2z M21.28,6.4H10.72c-1.28,0-2.24,0-3.2,1.12c-0.8,0.96-1.28,2.4-1.6,3.2c-0.16,0.48-0.32,1.76,0,2.08c1.28,0.64,4.16,1.6,9.28,1.6c6.4,0,8.64-0.96,10.08-1.6c0.32-0.16,0.32-1.28,0-1.92c-0.32-0.64-0.8-2.4-1.6-3.2C23.52,6.4,22.56,6.4,21.28,6.4z M6.4,16c-0.64-0.48-2.4-0.8-3.2,0c-0.64,0.64-0.64,2.56,0,3.2c0.8,0.8,6.4,0.64,6.4,0C9.6,17.92,7.2,16.48,6.4,16z M22.4,19.2c0,0.64,5.6,0.8,6.4,0c0.64-0.64,0.64-2.56,0-3.2c-0.8-0.8-2.08-0.48-3.2,0C24.8,16.32,22.4,18.08,22.4,19.2z"/>
</svg>
